<svg xmlns="http://www.w3.org/2000/svg" viewBox="0 0 435.53 382.83"><polygon points="424.99 39.58 416.26 34.51 416.18 6.05 424.91 11.13 424.99 39.58" fill="#8abcda"/><polygon points="424.91 11.13 416.18 6.05 426.67 0 435.39 5.07 424.91 11.13" fill="#8abcda"/><polygon points="425.04 57.66 416.31 52.59 396.8 35.36 405.52 40.43 425.04 57.66" fill="#8abcda"/><polygon points="435.39 5.07 435.52 51.61 425.04 57.66 405.52 40.43 405.61 68.89 395.07 74.97 394.94 28.43 405.47 22.35 424.99 39.58 424.91 11.13 435.39 5.07" fill="#1650b8"/><polygon points="395.07 74.97 386.34 69.89 386.21 23.36 394.94 28.43 395.07 74.97" fill="#8abcda"/><polygon points="394.94 28.43 386.21 23.36 396.74 17.27 405.47 22.35 394.94 28.43" fill="#8abcda"/><path d="M365.34,49.69l8.73,5.07a5.87,5.87,0,0,1,2.32,2.56,10,10,0,0,1,.94,4.59,18.47,18.47,0,0,1-.91,5.66L367.7,62.5a18.76,18.76,0,0,0,.9-5.66,10.13,10.13,0,0,0-.93-4.59A6,6,0,0,0,365.34,49.69Z" fill="#8abcda"/><path d="M357.79,82.28l-8.73-5.08.11.07a6.42,6.42,0,0,0,3.65.59,11.48,11.48,0,0,0,4.38-1.59,19.56,19.56,0,0,0,4.36-3.46A26.68,26.68,0,0,0,367.7,62.5l8.72,5.07a25.76,25.76,0,0,1-2.47,5.5,27,27,0,0,1-3.66,4.81,19.56,19.56,0,0,1-4.36,3.46,11.48,11.48,0,0,1-4.38,1.59,6.42,6.42,0,0,1-3.65-.59Z" fill="#8abcda"/><path d="M349.62,95.18l-8.73-5.07a11.21,11.21,0,0,1-4.45-5,20.36,20.36,0,0,1-1.68-8.69,36.06,36.06,0,0,1,1.63-10.63A48.86,48.86,0,0,1,348,46a41,41,0,0,1,9-7.11,24.39,24.39,0,0,1,9-3.33,11.63,11.63,0,0,1,7.13,1.11,3.07,3.07,0,0,1,.31.17l8.73,5.07-.31-.17a11.7,11.7,0,0,0-7.13-1.11,24.43,24.43,0,0,0-9,3.34,40.9,40.9,0,0,0-9.05,7.1,48.84,48.84,0,0,0-7.06,9.3,49.36,49.36,0,0,0-4.59,10.48,36,36,0,0,0-1.64,10.62,20.33,20.33,0,0,0,1.69,8.69A11.16,11.16,0,0,0,349.62,95.18Z" fill="#8abcda"/><path d="M386.65,46.85a20.34,20.34,0,0,1,1.7,8.7,36.14,36.14,0,0,1-1.65,10.62,48.13,48.13,0,0,1-4.63,10.5A49.3,49.3,0,0,1,375,86a41.15,41.15,0,0,1-9,7.09,24.08,24.08,0,0,1-9.06,3.34,11.61,11.61,0,0,1-7.09-1.13,11.12,11.12,0,0,1-4.64-5.15,20.33,20.33,0,0,1-1.69-8.69,36,36,0,0,1,1.64-10.62,49.36,49.36,0,0,1,4.59-10.48,48.84,48.84,0,0,1,7.06-9.3,40.9,40.9,0,0,1,9.05-7.1,24.43,24.43,0,0,1,9-3.34A11.7,11.7,0,0,1,382,41.72,10.94,10.94,0,0,1,386.65,46.85ZM376.42,67.57a18.47,18.47,0,0,0,.91-5.66,10,10,0,0,0-.94-4.59,5.82,5.82,0,0,0-2.49-2.66,6.34,6.34,0,0,0-3.68-.55,11.36,11.36,0,0,0-4.36,1.56,19.65,19.65,0,0,0-4.38,3.49,25.88,25.88,0,0,0-3.63,4.77,28,28,0,0,0-2.46,5.51,19.15,19.15,0,0,0-.9,5.66,10.56,10.56,0,0,0,.93,4.59,6.09,6.09,0,0,0,2.48,2.65,6.42,6.42,0,0,0,3.65.59,11.48,11.48,0,0,0,4.38-1.59,19.56,19.56,0,0,0,4.36-3.46A27,27,0,0,0,374,73.07a25.76,25.76,0,0,0,2.47-5.5" fill="#1650b8"/><polygon points="336.76 62.02 336.89 108.56 326.36 114.64 326.23 68.1 336.76 62.02" fill="#1650b8"/><polygon points="326.36 114.64 317.63 109.56 317.5 63.03 326.23 68.1 326.36 114.64" fill="#8abcda"/><polygon points="326.23 68.1 317.5 63.03 328.03 56.95 336.76 62.02 326.23 68.1" fill="#8abcda"/><polygon points="283.6 139.33 274.87 134.25 272.43 127.56 281.16 132.64 283.6 139.33" fill="#8abcda"/><polygon points="302.51 128.41 293.78 123.33 293.68 87.04 302.41 92.12 302.51 128.41" fill="#8abcda"/><polygon points="268.87 130.52 260.14 125.44 269.6 119.98 278.33 125.06 268.87 130.52" fill="#8abcda"/><polygon points="321.55 70.8 321.58 81.05 312.93 86.05 313.03 122.33 302.51 128.41 302.41 92.12 293.76 97.11 293.73 86.86 321.55 70.8" fill="#1650b8"/><polygon points="293.73 86.86 285 81.79 312.82 65.73 321.55 70.8 293.73 86.86" fill="#8abcda"/><polygon points="293.76 97.11 285.03 92.04 285 81.79 293.73 86.86 293.76 97.11" fill="#8abcda"/><polygon points="278.33 125.06 269.6 119.98 264.83 107.21 273.56 112.29 278.33 125.06" fill="#8abcda"/><polygon points="267.78 101.84 259.05 96.77 270.55 90.14 279.27 95.21 267.78 101.84" fill="#8abcda"/><path d="M279.28,95.21l15.55,37.63-11.23,6.49-2.44-6.69-15,8.68-2.4,9.48-11.23,6.49,15.29-55.44Zm-10.41,35.31,9.46-5.46-4.77-12.77-4.69,18.23" fill="#1650b8"/><polygon points="252.49 157.28 243.76 152.21 259.05 96.77 267.78 101.84 252.49 157.28" fill="#8abcda"/><polygon points="234.38 167.74 225.66 162.67 225.55 126.38 234.28 131.45 234.38 167.74" fill="#8abcda"/><polygon points="253.44 110.13 253.46 120.38 244.81 125.37 244.92 161.66 234.38 167.74 234.28 131.45 225.63 136.44 225.6 126.2 253.44 110.13" fill="#1650b8"/><polygon points="225.6 126.2 216.87 121.12 244.71 105.05 253.44 110.13 225.6 126.2" fill="#8abcda"/><polygon points="225.63 136.44 216.9 131.37 216.87 121.12 225.6 126.2 225.63 136.44" fill="#8abcda"/><polygon points="210.53 163.4 201.8 158.33 201.72 129.87 210.45 134.94 210.53 163.4" fill="#8abcda"/><polygon points="210.45 134.94 201.72 129.87 212.21 123.82 220.94 128.89 210.45 134.94" fill="#8abcda"/><polygon points="210.58 181.48 201.85 176.41 182.34 159.17 191.07 164.25 210.58 181.48" fill="#8abcda"/><polygon points="220.94 128.89 221.07 175.43 210.58 181.48 191.07 164.25 191.15 192.7 180.62 198.78 180.48 152.25 191.02 146.16 210.53 163.4 210.45 134.94 220.94 128.89" fill="#1650b8"/><polygon points="180.62 198.78 171.89 193.71 171.75 147.17 180.48 152.25 180.62 198.78" fill="#8abcda"/><polygon points="180.48 152.25 171.75 147.17 182.29 141.09 191.02 146.16 180.48 152.25" fill="#8abcda"/><polygon points="160.49 200.14 151.76 195.07 164.28 187.84 173.01 192.91 160.49 200.14" fill="#8abcda"/><polygon points="160.44 181.88 151.71 176.8 163.54 169.97 172.26 175.05 160.44 181.88" fill="#8abcda"/><polygon points="172.91 156.62 172.94 166.87 160.41 174.1 160.44 181.88 172.26 175.05 172.29 185.29 160.46 192.13 160.49 200.14 173.01 192.91 173.04 203.16 149.98 216.47 149.85 169.93 172.91 156.62" fill="#1650b8"/><polygon points="149.98 216.47 141.25 211.4 141.12 164.86 149.85 169.93 149.98 216.47" fill="#8abcda"/><polygon points="149.85 169.93 141.12 164.86 164.18 151.55 172.91 156.62 149.85 169.93" fill="#8abcda"/><path d="M122.64,206l8.73,5.07a1.47,1.47,0,0,1,.57.59l-8.72-5.07A1.5,1.5,0,0,0,122.64,206Z" fill="#8abcda"/><polygon points="113.44 233.62 104.71 228.54 109.21 216.17 117.94 221.25 113.44 233.62" fill="#8abcda"/><path d="M117.94,221.25l-8.73-5.08a9.82,9.82,0,0,0,4.67.89,10.55,10.55,0,0,0,4.58-1.46A10.43,10.43,0,0,0,122.3,212a7.49,7.49,0,0,0,1.25-3.82,3.29,3.29,0,0,0-.33-1.62l8.72,5.07a3.18,3.18,0,0,1,.34,1.62,7.48,7.48,0,0,1-1.26,3.82,10.34,10.34,0,0,1-3.83,3.59,10.71,10.71,0,0,1-4.58,1.45A9.8,9.8,0,0,1,117.94,221.25Z" fill="#8abcda"/><path d="M131.59,193.06l8.73,5.07c-1.6-.92-3.93-1.09-7-.5-.85.17-1.72.36-2.61.58a11,11,0,0,1-2.36.35l-8.73-5.08a11.56,11.56,0,0,0,2.36-.34c.89-.22,1.76-.41,2.61-.58C127.66,192,130,192.13,131.59,193.06Z" fill="#8abcda"/><path d="M126.82,198.22l-8.72-5.08a3,3,0,0,0,1.56.34l8.73,5.08A3.12,3.12,0,0,1,126.82,198.22Z" fill="#8abcda"/><path d="M129,180.67l-8.72-5.07a28.06,28.06,0,0,1,6.29-2.69,20.38,20.38,0,0,1,6.29-.81l8.73,5.08a20.06,20.06,0,0,0-6.29.8A28.33,28.33,0,0,0,129,180.67Z" fill="#8abcda"/><path d="M117.9,211.28l-8.72-5.08a5.13,5.13,0,0,1-1.92-2,10.85,10.85,0,0,1-1-5.17,24.39,24.39,0,0,1,1-6.83,28.12,28.12,0,0,1,7.19-12.09,27.56,27.56,0,0,1,5.82-4.47l8.72,5.07a28.59,28.59,0,0,0-10.21,10.13,28.2,28.2,0,0,0-2.79,6.43,24.44,24.44,0,0,0-1,6.83,10.82,10.82,0,0,0,.95,5.17A5.21,5.21,0,0,0,117.9,211.28Z" fill="#8abcda"/><path d="M129,180.67a28.33,28.33,0,0,1,6.3-2.69,20.06,20.06,0,0,1,6.29-.8l-4.17,11.87a7.13,7.13,0,0,0-3.43-.4,8.68,8.68,0,0,0-3.34,1.14,10.3,10.3,0,0,0-3.32,3,6.32,6.32,0,0,0-1.29,3.65,1.88,1.88,0,0,0,.65,1.66,2.92,2.92,0,0,0,1.7.43,11,11,0,0,0,2.36-.35c.89-.22,1.76-.41,2.61-.58,3.44-.67,6-.37,7.56.92s2.4,3.69,2.41,7.23a24.61,24.61,0,0,1-1,7.09,27.57,27.57,0,0,1-3,6.73,31.76,31.76,0,0,1-4.94,6.07,33.61,33.61,0,0,1-6.62,5c-5.13,3-9.88,3.94-14.27,3l4.5-12.37a9.8,9.8,0,0,0,4.67.88,10.71,10.71,0,0,0,4.58-1.45,10.34,10.34,0,0,0,3.83-3.59,7.48,7.48,0,0,0,1.26-3.82,3.18,3.18,0,0,0-.34-1.62,1.66,1.66,0,0,0-1.08-.8,4.89,4.89,0,0,0-2-.07c-.81.09-1.77.25-2.93.46-1.36.27-2.69.5-4,.67a7.29,7.29,0,0,1-3.51-.36,5,5,0,0,1-2.47-2.32,10.82,10.82,0,0,1-.95-5.17,24.44,24.44,0,0,1,1-6.83,28.27,28.27,0,0,1,7.19-12.09A27.84,27.84,0,0,1,129,180.67Z" fill="#1650b8"/><polygon points="95.16 237.86 86.43 232.78 98.95 225.55 107.68 230.63 95.16 237.86" fill="#8abcda"/><polygon points="95.11 219.59 86.38 214.52 98.21 207.69 106.94 212.76 95.11 219.59" fill="#8abcda"/><polygon points="107.58 194.34 107.61 204.58 95.08 211.82 95.11 219.59 106.94 212.76 106.97 223.01 95.14 229.84 95.16 237.86 107.68 230.63 107.71 240.87 84.66 254.19 84.52 207.65 107.58 194.34" fill="#1650b8"/><polygon points="84.66 254.19 75.93 249.11 75.8 202.57 84.52 207.65 84.66 254.19" fill="#8abcda"/><polygon points="84.52 207.65 75.8 202.57 98.85 189.26 107.58 194.34 84.52 207.65" fill="#8abcda"/><polygon points="67.15 264.29 58.42 259.22 48.33 247.12 57.06 252.19 67.15 264.29" fill="#8abcda"/><path d="M59,243.22l-8.73-5.07a14.34,14.34,0,0,0,4.79-4.26L63.8,239A14.44,14.44,0,0,1,59,243.22Z" fill="#8abcda"/><polygon points="57.03 244.36 48.3 239.29 50.28 238.15 59.01 243.22 57.03 244.36" fill="#8abcda"/><path d="M55.46,225.55l8.73,5.07c.83.49,1.25,1.53,1.26,3.13A9.11,9.11,0,0,1,63.8,239l-8.73-5.07a9.11,9.11,0,0,0,1.65-5.21C56.71,227.07,56.29,226,55.46,225.55Z" fill="#8abcda"/><path d="M64.07,213.47l8.73,5.07a6.49,6.49,0,0,0-4.06-.64,16.58,16.58,0,0,0-5.91,2.27L54.1,215.1A16.55,16.55,0,0,1,60,212.83,6.34,6.34,0,0,1,64.07,213.47Z" fill="#8abcda"/><path d="M67.47,245l12.79,11.71-13.11,7.57-10.09-12.1,0,17.9-10.54,6.08-.13-46.54,16.39-9.46a16.58,16.58,0,0,1,5.91-2.27,6.32,6.32,0,0,1,4.17.71,6.38,6.38,0,0,1,2.48,3.16,13.81,13.81,0,0,1,.86,5,22.23,22.23,0,0,1-2.21,9.9A25.26,25.26,0,0,1,67.47,245Zm-3.67-6a9.11,9.11,0,0,0,1.65-5.21c0-1.85-.57-2.95-1.68-3.31s-2.7.09-4.79,1.29l-2,1.14,0,11.49,2-1.14A14.44,14.44,0,0,0,63.8,239" fill="#1650b8"/><polygon points="46.44 229.63 37.71 224.56 54.1 215.1 62.83 220.17 46.44 229.63" fill="#8abcda"/><polygon points="46.57 276.17 37.85 271.1 37.71 224.56 46.44 229.63 46.57 276.17" fill="#8abcda"/><path d="M26.79,241l-8.73-5.07q6.81-3.93,10.45-2L37.23,239C34.81,237.72,31.32,238.36,26.79,241Z" fill="#8abcda"/><path d="M28.62,234l8.73,5.07-.12-.06L28.51,234Z" fill="#8abcda"/><polygon points="20.61 265.93 11.89 260.86 15.37 258.85 24.09 263.92 20.61 265.93" fill="#8abcda"/><path d="M19.9,246.29l8.73,5.08c.83.48,1.25,1.61,1.25,3.41,0,3.87-1.91,6.91-5.79,9.14l-8.72-5.07c3.87-2.24,5.79-5.28,5.78-9.15C21.15,247.91,20.73,246.78,19.9,246.29Z" fill="#8abcda"/><path d="M37.23,239c2.43,1.33,3.66,4.44,3.67,9.38A26.25,26.25,0,0,1,37.3,262a28,28,0,0,1-10.43,10.09l-6.23,3.6.05,15.43L10.15,297.2,10,250.66,26.79,241C31.32,238.36,34.81,237.72,37.23,239ZM24.09,263.92c3.88-2.23,5.8-5.27,5.79-9.14s-1.94-4.69-5.82-2.45l-3.48,2,0,11.59,3.47-2" fill="#1650b8"/><polygon points="10.15 297.2 1.43 292.13 1.29 245.59 10.02 250.66 10.15 297.2" fill="#8abcda"/><polygon points="10.02 250.66 1.29 245.59 18.06 235.91 26.79 240.98 10.02 250.66" fill="#8abcda"/><polygon points="207.95 271.4 199.22 266.32 195.65 241.56 204.38 246.63 207.95 271.4" fill="#8abcda"/><polygon points="192.99 258.28 184.26 253.21 192.26 223.73 200.99 228.8 192.99 258.28" fill="#8abcda"/><polygon points="200.99 228.8 192.26 223.73 202.68 217.71 211.41 222.79 200.99 228.8" fill="#8abcda"/><polygon points="190.7 281.36 181.97 276.29 172.82 254.74 181.54 259.81 190.7 281.36" fill="#8abcda"/><polygon points="211.41 222.79 218.42 265.35 207.95 271.4 204.38 246.63 194.89 278.94 190.7 281.36 181.54 259.81 178.13 288.62 167.66 294.66 174.4 244.15 184.83 238.13 192.99 258.28 200.99 228.8 211.41 222.79" fill="#cfe3f0"/><polygon points="167.66 294.66 158.93 289.59 165.68 239.08 174.4 244.15 167.66 294.66" fill="#8abcda"/><polygon points="174.4 244.15 165.68 239.08 176.1 233.06 184.83 238.13 174.4 244.15" fill="#8abcda"/><polygon points="151.97 303.72 143.24 298.65 133.15 286.55 141.88 291.62 151.97 303.72" fill="#8abcda"/><path d="M143.83,282.64l-8.73-5.07a14.2,14.2,0,0,0,4.79-4.26l8.73,5.08A14.28,14.28,0,0,1,143.83,282.64Z" fill="#8abcda"/><polygon points="141.85 283.79 133.13 278.71 135.1 277.57 143.83 282.64 141.85 283.79" fill="#8abcda"/><path d="M140.28,265l8.73,5.07c.83.48,1.25,1.52,1.26,3.13a9.11,9.11,0,0,1-1.65,5.21l-8.73-5.08a9.09,9.09,0,0,0,1.65-5.21C141.53,266.5,141.12,265.46,140.28,265Z" fill="#8abcda"/><path d="M148.89,252.9l8.73,5.07a6.31,6.31,0,0,0-4.07-.63,16.06,16.06,0,0,0-5.9,2.26l-8.73-5.07a16.06,16.06,0,0,1,5.9-2.26A6.31,6.31,0,0,1,148.89,252.9Z" fill="#8abcda"/><path d="M152.29,284.44l12.79,11.71L152,303.72l-10.09-12.1.05,17.9-10.54,6.08-.13-46.54,16.39-9.46a16.06,16.06,0,0,1,5.9-2.26,5.72,5.72,0,0,1,6.66,3.85,13.9,13.9,0,0,1,.86,5.06,22.29,22.29,0,0,1-2.21,9.9A25.16,25.16,0,0,1,152.29,284.44Zm-3.67-6.05a9.11,9.11,0,0,0,1.65-5.21c0-1.86-.57-3-1.68-3.32s-2.72.1-4.79,1.3l-2,1.14,0,11.49,2-1.15a14.28,14.28,0,0,0,4.79-4.25" fill="#cfe3f0"/><polygon points="131.26 269.06 122.53 263.99 138.92 254.53 147.65 259.6 131.26 269.06" fill="#8abcda"/><polygon points="131.4 315.6 122.67 310.52 122.53 263.99 131.26 269.06 131.4 315.6" fill="#8abcda"/><path d="M101.71,290.36l8.73,5.07a5.79,5.79,0,0,1,2.28,2.52,10.16,10.16,0,0,1,.93,4.59,18.57,18.57,0,0,1-.9,5.66L104,303.13a18.27,18.27,0,0,0,.9-5.66,10.13,10.13,0,0,0-.93-4.59A5.79,5.79,0,0,0,101.71,290.36Z" fill="#8abcda"/><path d="M94.11,322.91l-8.72-5.07.1.06a6.24,6.24,0,0,0,3.65.59,11.46,11.46,0,0,0,4.37-1.58,19.49,19.49,0,0,0,4.37-3.47,26.19,26.19,0,0,0,3.65-4.8,25.87,25.87,0,0,0,2.49-5.51l8.73,5.07a25.65,25.65,0,0,1-2.49,5.51,26.19,26.19,0,0,1-3.65,4.8,19.49,19.49,0,0,1-4.37,3.47,11.46,11.46,0,0,1-4.37,1.58,6.15,6.15,0,0,1-3.65-.59Z" fill="#8abcda"/><path d="M85.94,335.81l-8.73-5.07a11.13,11.13,0,0,1-4.44-5A20.21,20.21,0,0,1,71.08,317a36,36,0,0,1,1.63-10.62,49.29,49.29,0,0,1,11.65-19.78,41.08,41.08,0,0,1,9-7.1,24.45,24.45,0,0,1,9-3.34,11.65,11.65,0,0,1,7.13,1.11l.26.15,8.73,5.07-.26-.15a11.67,11.67,0,0,0-7.14-1.1,24.29,24.29,0,0,0-9,3.34,41,41,0,0,0-9,7.09,49,49,0,0,0-11.65,19.78,36,36,0,0,0-1.63,10.62,20.33,20.33,0,0,0,1.68,8.69A11.16,11.16,0,0,0,85.94,335.81Z" fill="#8abcda"/><path d="M123,287.48a20.39,20.39,0,0,1,1.69,8.71A36.05,36.05,0,0,1,123,306.8a48.13,48.13,0,0,1-4.63,10.5,48.89,48.89,0,0,1-7.1,9.32,41,41,0,0,1-9,7.1,24.27,24.27,0,0,1-9,3.34,11.7,11.7,0,0,1-7.09-1.14,11.12,11.12,0,0,1-4.64-5.15,20.33,20.33,0,0,1-1.68-8.69,36,36,0,0,1,1.63-10.62,49,49,0,0,1,11.65-19.78,41,41,0,0,1,9-7.09,24.29,24.29,0,0,1,9-3.34,11.67,11.67,0,0,1,7.14,1.1A11.07,11.07,0,0,1,123,287.48ZM112.75,308.2a18.57,18.57,0,0,0,.9-5.66,10.16,10.16,0,0,0-.93-4.59,5.83,5.83,0,0,0-2.51-2.65,6.3,6.3,0,0,0-3.66-.56,11.4,11.4,0,0,0-4.39,1.57,19.67,19.67,0,0,0-4.36,3.48,25.77,25.77,0,0,0-3.63,4.77,27.73,27.73,0,0,0-2.45,5.52,18.22,18.22,0,0,0-.91,5.65,10.13,10.13,0,0,0,.93,4.59,5.67,5.67,0,0,0,6.13,3.24,11.46,11.46,0,0,0,4.37-1.58,19.49,19.49,0,0,0,4.37-3.47,26.19,26.19,0,0,0,3.65-4.8,25.65,25.65,0,0,0,2.49-5.51" fill="#cfe3f0"/><path d="M57.65,344.11,48.92,339a5.7,5.7,0,0,0,3.39.68,10.51,10.51,0,0,0,4.3-1.51C60,336.27,63,332.89,65.68,328l8.72,5.07c-2.67,4.86-5.69,8.24-9.06,10.19a10.48,10.48,0,0,1-4.3,1.5A5.63,5.63,0,0,1,57.65,344.11Z" fill="#8abcda"/><path d="M64.69,311.76l8.73,5.08a6.33,6.33,0,0,1,.94.65l-8.73-5.07A7.27,7.27,0,0,0,64.69,311.76Z" fill="#8abcda"/><path d="M64.63,306.24l-8.72-5.08A24.33,24.33,0,0,1,60.67,299a22.85,22.85,0,0,1,4.92-1l8.73,5.08a22.84,22.84,0,0,0-4.92,1A24.15,24.15,0,0,0,64.63,306.24Z" fill="#8abcda"/><path d="M49.76,356.92,41,351.85a11.86,11.86,0,0,1-4.57-5.06,19.48,19.48,0,0,1-1.8-8.88,35.59,35.59,0,0,1,1.71-10.85,50.17,50.17,0,0,1,11.43-19.4,36.3,36.3,0,0,1,8.11-6.5l8.72,5.08a35.92,35.92,0,0,0-8.1,6.5,49,49,0,0,0-6.77,9,49.75,49.75,0,0,0-4.66,10.43A35.64,35.64,0,0,0,43.39,343a19.62,19.62,0,0,0,1.79,8.88A11.83,11.83,0,0,0,49.76,356.92Z" fill="#8abcda"/><path d="M64.63,306.24a24.15,24.15,0,0,1,4.77-2.17,22.84,22.84,0,0,1,4.92-1l0,14.44c-2.45-2-5.45-2-9,.09a18.78,18.78,0,0,0-4.38,3.51,25.68,25.68,0,0,0-3.46,4.69,24.93,24.93,0,0,0-2.26,5.37,19.68,19.68,0,0,0-.83,5.53,11.4,11.4,0,0,0,.86,4.64,5.72,5.72,0,0,0,2.32,2.74,5.6,5.6,0,0,0,3.47.73,10.48,10.48,0,0,0,4.3-1.5c3.37-2,6.39-5.33,9.06-10.19l0,14.34-1.07,1a56.12,56.12,0,0,1-4.5,4,33.71,33.71,0,0,1-4.14,2.87,20.2,20.2,0,0,1-8,2.8A11.22,11.22,0,0,1,49.9,357a11.8,11.8,0,0,1-4.72-5.14A19.62,19.62,0,0,1,43.39,343a35.64,35.64,0,0,1,1.71-10.85,49.75,49.75,0,0,1,4.66-10.43,49,49,0,0,1,6.77-9A35.92,35.92,0,0,1,64.63,306.24Z" fill="#cfe3f0"/><path d="M17.93,354.84l8.72,5.07a1.49,1.49,0,0,1,.58.59l-8.73-5.07A1.47,1.47,0,0,0,17.93,354.84Z" fill="#8abcda"/><polygon points="8.73 382.47 0 377.4 4.5 365.03 13.22 370.1 8.73 382.47" fill="#8abcda"/><path d="M13.22,370.1,4.5,365a9.78,9.78,0,0,0,4.67.88,10.53,10.53,0,0,0,4.57-1.45,10.3,10.3,0,0,0,3.84-3.59,7.48,7.48,0,0,0,1.26-3.82,3.18,3.18,0,0,0-.34-1.62l8.73,5.07a3.33,3.33,0,0,1,.34,1.63A7.54,7.54,0,0,1,26.31,366a10.36,10.36,0,0,1-3.84,3.58A10.55,10.55,0,0,1,17.9,371,10,10,0,0,1,13.22,370.1Z" fill="#8abcda"/><path d="M26.89,341.93,35.62,347c-1.61-.93-3.93-1.11-7-.51-.86.16-1.73.36-2.61.58a11.65,11.65,0,0,1-2.36.34L15,342.34a11,11,0,0,0,2.36-.35c.88-.22,1.76-.41,2.61-.58Q24.48,340.53,26.89,341.93Z" fill="#8abcda"/><path d="M22.11,347.07,13.38,342a3.1,3.1,0,0,0,1.57.34l8.73,5.07A3.1,3.1,0,0,1,22.11,347.07Z" fill="#8abcda"/><path d="M24.29,329.53l-8.73-5.08a27.9,27.9,0,0,1,6.3-2.68,19.72,19.72,0,0,1,6.29-.81L36.87,326a19.69,19.69,0,0,0-6.28.81A27.94,27.94,0,0,0,24.29,329.53Z" fill="#8abcda"/><path d="M13.19,360.13l-8.73-5.07A5.31,5.31,0,0,1,2.54,353a11,11,0,0,1-.94-5.17,23.78,23.78,0,0,1,1-6.83,28,28,0,0,1,7.19-12.09,27.65,27.65,0,0,1,5.81-4.47l8.73,5.08A27,27,0,0,0,18.48,334a27.9,27.9,0,0,0-7.19,12.08,24.21,24.21,0,0,0-1,6.84,11.06,11.06,0,0,0,.95,5.16A5.31,5.31,0,0,0,13.19,360.13Z" fill="#8abcda"/><path d="M24.29,329.53a27.94,27.94,0,0,1,6.3-2.69,19.69,19.69,0,0,1,6.28-.81L32.71,337.9a7.17,7.17,0,0,0-3.44-.4,9.15,9.15,0,0,0-3.34,1.14,10.46,10.46,0,0,0-3.33,3,6.36,6.36,0,0,0-1.27,3.65A1.83,1.83,0,0,0,22,347a2.92,2.92,0,0,0,1.7.42,11.65,11.65,0,0,0,2.36-.34c.88-.22,1.75-.42,2.61-.58,3.43-.68,6-.36,7.56.91s2.4,3.69,2.41,7.24a24.68,24.68,0,0,1-1,7.09,27.77,27.77,0,0,1-3.05,6.73,31.29,31.29,0,0,1-4.92,6.06,33.6,33.6,0,0,1-6.64,5c-5.11,2.95-9.88,3.94-14.25,3l4.49-12.37a10,10,0,0,0,4.68.89,10.55,10.55,0,0,0,4.57-1.46A10.36,10.36,0,0,0,26.31,366a7.54,7.54,0,0,0,1.26-3.82,3.33,3.33,0,0,0-.34-1.63,1.64,1.64,0,0,0-1.08-.79,4.72,4.72,0,0,0-2-.07c-.81.08-1.78.24-2.93.45-1.36.28-2.69.5-4,.68a7.38,7.38,0,0,1-3.5-.37,5,5,0,0,1-2.48-2.32,11.06,11.06,0,0,1-.95-5.16,24.21,24.21,0,0,1,1-6.84A27.9,27.9,0,0,1,18.48,334,27,27,0,0,1,24.29,329.53Z" fill="#cfe3f0"/><path d="M95.79,189.18,90.23,186a2.1,2.1,0,0,0,1.27.25,3.91,3.91,0,0,0,1.56-.55,7.15,7.15,0,0,0,1.55-1.25,8.82,8.82,0,0,0,1.27-1.71,10.55,10.55,0,0,0,.85-2l5.56,3.23a10.55,10.55,0,0,1-.85,2,9.21,9.21,0,0,1-1.27,1.72,6.87,6.87,0,0,1-1.55,1.24,3.91,3.91,0,0,1-1.56.55A2,2,0,0,1,95.79,189.18Z" fill="#8abcda"/><path d="M102.29,183.94l-5.56-3.23a6.8,6.8,0,0,0,.32-2,3.64,3.64,0,0,0-.33-1.6,2.47,2.47,0,0,0-.86-1l5.56,3.23a2.47,2.47,0,0,1,.86,1,3.64,3.64,0,0,1,.33,1.6A6.8,6.8,0,0,1,102.29,183.94Z" fill="#8abcda"/><path d="M95.84,176.1l5.56,3.23h0l-5.56-3.23Z" fill="#8abcda"/><path d="M108.35,174.3a8.66,8.66,0,0,1,.8,3.93,15.7,15.7,0,0,1-.8,4.86,21.69,21.69,0,0,1-2.19,4.69,22.45,22.45,0,0,1-3.36,4.16,21.1,21.1,0,0,1-4.26,3.25,12.62,12.62,0,0,1-4.19,1.63,5.52,5.52,0,0,1-3.31-.33,4.7,4.7,0,0,1-2.17-2.23,8.81,8.81,0,0,1-.81-4,14.53,14.53,0,0,1,.78-4.65A21.26,21.26,0,0,1,91,180.92a23.58,23.58,0,0,1,3.33-4.19,19.93,19.93,0,0,1,4.23-3.26,12.5,12.5,0,0,1,4.19-1.62,6,6,0,0,1,3.36.31A4.43,4.43,0,0,1,108.35,174.3Zm-6.06,9.64a6.8,6.8,0,0,0,.32-2,3.64,3.64,0,0,0-.33-1.6,2.47,2.47,0,0,0-.86-1,2.1,2.1,0,0,0-1.27-.25,4,4,0,0,0-1.55.55A7,7,0,0,0,97,180.89a9.27,9.27,0,0,0-1.26,1.72,10.35,10.35,0,0,0-.84,1.94,6.45,6.45,0,0,0-.33,2,3.54,3.54,0,0,0,.34,1.67,2.25,2.25,0,0,0,.85,1,2,2,0,0,0,1.27.25,3.91,3.91,0,0,0,1.56-.55,6.87,6.87,0,0,0,1.55-1.24,9.21,9.21,0,0,0,1.27-1.72,10.55,10.55,0,0,0,.85-2" fill="#fff"/><path d="M90.74,196.33l-5.56-3.23A4.71,4.71,0,0,1,83.31,191a8.77,8.77,0,0,1-.81-4,14.49,14.49,0,0,1,.78-4.65,20.8,20.8,0,0,1,2.18-4.64,23.58,23.58,0,0,1,3.33-4.19A19.68,19.68,0,0,1,93,170.24a12.5,12.5,0,0,1,4.19-1.62,6,6,0,0,1,3.36.31,2.92,2.92,0,0,1,.47.23l5.56,3.23a4.09,4.09,0,0,0-.47-.23,6,6,0,0,0-3.36-.31,12.5,12.5,0,0,0-4.19,1.62,19.93,19.93,0,0,0-4.23,3.26A23.58,23.58,0,0,0,91,180.92a21.26,21.26,0,0,0-2.18,4.64,14.53,14.53,0,0,0-.78,4.65,8.81,8.81,0,0,0,.81,4A4.8,4.8,0,0,0,90.74,196.33Z" fill="#8abcda"/><polygon points="78.33 206.11 78.28 185.93 84.47 182.35 84.53 202.53 78.33 206.11" fill="#fff"/><polygon points="78.33 206.11 72.77 202.88 72.72 182.7 78.28 185.93 78.33 206.11" fill="#8abcda"/><polygon points="78.28 185.93 72.72 182.7 78.91 179.12 84.47 182.35 78.28 185.93" fill="#8abcda"/><path d="M82.68,171.92l-5.56-3.23a2.17,2.17,0,0,1,1.12.22l5.56,3.23A2.15,2.15,0,0,0,82.68,171.92Z" fill="#8abcda"/><path d="M80,173.48l-5.56-3.23a5.72,5.72,0,0,1,1.35-1.09,3.27,3.27,0,0,1,1.35-.47l5.56,3.23a3.27,3.27,0,0,0-1.35.47A5.72,5.72,0,0,0,80,173.48Z" fill="#8abcda"/><path d="M78.87,180.65l-5.56-3.23a1.86,1.86,0,0,1-.74-.84,3.11,3.11,0,0,1-.28-1.39,5.8,5.8,0,0,1,.27-1.71,8.67,8.67,0,0,1,.74-1.72L78.86,175a8.93,8.93,0,0,0-.74,1.72,5.8,5.8,0,0,0-.27,1.71,3.25,3.25,0,0,0,.28,1.39A1.86,1.86,0,0,0,78.87,180.65Z" fill="#8abcda"/><path d="M84.55,173a3.22,3.22,0,0,1,.27,1.39,5.51,5.51,0,0,1-.26,1.71,8.34,8.34,0,0,1-.74,1.71,9,9,0,0,1-1.12,1.51,5.93,5.93,0,0,1-1.35,1.09,3.31,3.31,0,0,1-1.35.47,2,2,0,0,1-1.12-.22,1.85,1.85,0,0,1-.75-.85,3.25,3.25,0,0,1-.28-1.39,5.8,5.8,0,0,1,.27-1.71,8.93,8.93,0,0,1,.74-1.72A9.68,9.68,0,0,1,80,173.48a5.72,5.72,0,0,1,1.35-1.09,3.27,3.27,0,0,1,1.35-.47,2.15,2.15,0,0,1,1.12.22A2,2,0,0,1,84.55,173Z" fill="#fff"/><path d="M78.86,175l-5.56-3.23a8.69,8.69,0,0,1,1.12-1.51L80,173.48A9.68,9.68,0,0,0,78.86,175Z" fill="#8abcda"/><polygon points="67.9 212.14 62.34 208.91 62.33 206.66 67.89 209.89 67.9 212.14" fill="#8abcda"/><path d="M65.64,207.57l-5.56-3.23a9.2,9.2,0,0,0,1.26-1.71,10.28,10.28,0,0,0,.85-2l5.56,3.24a10.48,10.48,0,0,1-.85,2A8.77,8.77,0,0,1,65.64,207.57Z" fill="#8abcda"/><path d="M61.22,209.14l-5.56-3.23a2.1,2.1,0,0,0,1.27.25,4,4,0,0,0,1.59-.57,6.91,6.91,0,0,0,1.56-1.25l5.56,3.23a6.65,6.65,0,0,1-1.56,1.25,4,4,0,0,1-1.59.57A2.1,2.1,0,0,1,61.22,209.14Z" fill="#8abcda"/><path d="M67.75,203.91l-5.56-3.24a6.34,6.34,0,0,0,.33-2,3.57,3.57,0,0,0-.34-1.6,2.37,2.37,0,0,0-.86-1l5.56,3.23a2.3,2.3,0,0,1,.86,1,3.57,3.57,0,0,1,.34,1.6A6.45,6.45,0,0,1,67.75,203.91Z" fill="#8abcda"/><path d="M61.3,196.12l5.56,3.23h0l-5.56-3.23Z" fill="#8abcda"/><polygon points="67.84 193.96 62.28 190.73 62.24 176.26 67.8 179.49 67.84 193.96" fill="#8abcda"/><path d="M56.31,216.5l-5.56-3.24-.13-.07a5,5,0,0,1-1.87-2.35,9.82,9.82,0,0,1-.68-3.87,17,17,0,0,1,.62-4.47,20,20,0,0,1,1.79-4.44,19.83,19.83,0,0,1,2.78-3.91,15.06,15.06,0,0,1,3.58-2.91q3.18-1.83,5.32-.59l5.56,3.23c-1.43-.82-3.2-.63-5.32.59a15.06,15.06,0,0,0-3.58,2.91,20.45,20.45,0,0,0-4.57,8.35,17,17,0,0,0-.62,4.47,10,10,0,0,0,.68,3.87,5,5,0,0,0,1.87,2.35Z" fill="#8abcda"/><polygon points="67.8 179.49 62.24 176.26 68.47 172.66 74.03 175.89 67.8 179.49" fill="#8abcda"/><path d="M67.8,179.49l6.23-3.6.09,32.65-6.22,3.6v-2.25a13.57,13.57,0,0,1-5.36,6A8.28,8.28,0,0,1,59,217.08a4.65,4.65,0,0,1-2.82-.66,5,5,0,0,1-1.87-2.35,10,10,0,0,1-.68-3.87,17,17,0,0,1,.62-4.47,20.45,20.45,0,0,1,4.57-8.35,15.06,15.06,0,0,1,3.58-2.91c2.18-1.26,4-1.43,5.44-.51Zm0,24.42a6.45,6.45,0,0,0,.33-2,3.57,3.57,0,0,0-.34-1.6,2.3,2.3,0,0,0-.86-1,2.08,2.08,0,0,0-1.26-.25,4,4,0,0,0-1.56.55,6.65,6.65,0,0,0-1.55,1.25,8.43,8.43,0,0,0-1.27,1.71,10.6,10.6,0,0,0-.85,1.93,6.15,6.15,0,0,0-.32,1.94,3.83,3.83,0,0,0,.31,1.65,2.21,2.21,0,0,0,.84,1,2.1,2.1,0,0,0,1.27.25,4,4,0,0,0,1.59-.57,6.65,6.65,0,0,0,1.56-1.25,8.77,8.77,0,0,0,1.26-1.71,10.48,10.48,0,0,0,.85-2" fill="#fff"/><path d="M38.43,223.16l-5.56-3.24c.52.31,1.31.16,2.35-.44a6,6,0,0,0,3.13-5.55l5.56,3.23a6,6,0,0,1-3.13,5.56C39.74,223.32,39,223.46,38.43,223.16Z" fill="#8abcda"/><polygon points="43.91 217.16 38.35 213.93 38.32 202.56 43.88 205.79 43.91 217.16" fill="#8abcda"/><polygon points="43.88 205.79 38.32 202.56 44.52 198.98 50.08 202.21 43.88 205.79" fill="#8abcda"/><path d="M33.17,230.27,27.61,227c-1.16-.68-1.74-2.18-1.75-4.52l5.56,3.23Q31.44,229.26,33.17,230.27Z" fill="#8abcda"/><path d="M50.08,202.21l0,12.75a12.8,12.8,0,0,1-2.33,7.49,21.07,21.07,0,0,1-7,6.08q-4.66,2.68-7,2c-1.57-.46-2.36-2.06-2.37-4.78l0-12.75,6.19-3.57,0,11.37c0,2.49,1.06,3.13,3.17,1.92a6,6,0,0,0,3.13-5.56l0-11.37Z" fill="#fff"/><polygon points="31.42 225.75 25.86 222.52 25.82 209.77 31.39 213 31.42 225.75" fill="#8abcda"/><polygon points="31.39 213 25.82 209.77 32.02 206.19 37.58 209.43 31.39 213" fill="#8abcda"/><polygon points="21 239.21 15.44 235.98 15.44 233.73 21 236.97 21 239.21" fill="#8abcda"/><path d="M18.75,234.64l-5.56-3.23a9.2,9.2,0,0,0,1.26-1.71,10.2,10.2,0,0,0,.85-1.95L20.86,231a10.2,10.2,0,0,1-.85,2A9.2,9.2,0,0,1,18.75,234.64Z" fill="#8abcda"/><path d="M14.33,236.21,8.76,233a2.07,2.07,0,0,0,1.28.25,4,4,0,0,0,1.59-.57,6.85,6.85,0,0,0,1.56-1.25l5.56,3.23a6.85,6.85,0,0,1-1.56,1.25,4,4,0,0,1-1.59.57A2,2,0,0,1,14.33,236.21Z" fill="#8abcda"/><path d="M20.86,231l-5.56-3.23a6.45,6.45,0,0,0,.33-2,3.71,3.71,0,0,0-.34-1.6,2.28,2.28,0,0,0-.86-1L20,226.44a2.28,2.28,0,0,1,.86,1,3.58,3.58,0,0,1,.34,1.61A6.39,6.39,0,0,1,20.86,231Z" fill="#8abcda"/><polygon points="20.95 221.03 15.39 217.8 15.39 215.8 20.95 219.03 20.95 221.03" fill="#8abcda"/><polygon points="20.95 219.03 15.39 215.8 21.61 212.2 27.17 215.44 20.95 219.03" fill="#8abcda"/><path d="M9.42,243.6l-5.57-3.23-.12-.07A5.07,5.07,0,0,1,1.85,238a10.23,10.23,0,0,1-.67-3.91,16.34,16.34,0,0,1,.64-4.49,21.17,21.17,0,0,1,1.8-4.45,20.26,20.26,0,0,1,2.77-3.9,14.68,14.68,0,0,1,3.55-2.89c2.12-1.22,3.89-1.43,5.31-.61L20.81,221c-1.41-.83-3.19-.62-5.31.6a14.68,14.68,0,0,0-3.55,2.9,19.43,19.43,0,0,0-2.76,3.89,20.68,20.68,0,0,0-1.81,4.45,16.39,16.39,0,0,0-.64,4.49,10,10,0,0,0,.68,3.91,5,5,0,0,0,1.87,2.34Z" fill="#8abcda"/><path d="M21,219l6.22-3.59.06,20.18L21,239.21V237a13.66,13.66,0,0,1-5.36,6,8.28,8.28,0,0,1-3.53,1.22,4.5,4.5,0,0,1-2.82-.63,5,5,0,0,1-1.87-2.34,10,10,0,0,1-.68-3.91,16.39,16.39,0,0,1,.64-4.49,20.68,20.68,0,0,1,1.81-4.45A19.43,19.43,0,0,1,12,224.45a14.68,14.68,0,0,1,3.55-2.9c2.19-1.27,4-1.44,5.45-.52ZM20.86,231a6.39,6.39,0,0,0,.33-2,3.58,3.58,0,0,0-.34-1.61,2.28,2.28,0,0,0-.86-1,2,2,0,0,0-1.26-.26,3.93,3.93,0,0,0-1.57.56A7.4,7.4,0,0,0,15.57,228a9.27,9.27,0,0,0-1.26,1.72,10.17,10.17,0,0,0-.84,1.92,6.54,6.54,0,0,0-.29,1.92,4,4,0,0,0,.3,1.65,2.29,2.29,0,0,0,.85,1,2,2,0,0,0,1.27.25,4,4,0,0,0,1.59-.57,6.85,6.85,0,0,0,1.56-1.25A9.2,9.2,0,0,0,20,232.93a10.2,10.2,0,0,0,.85-2" fill="#fff"/><polygon points="131.68 177.38 126.12 174.15 126.1 166.13 131.66 169.36 131.68 177.38" fill="#8abcda"/><polygon points="136.03 161.8 130.47 158.57 137.42 154.56 142.98 157.79 136.03 161.8" fill="#8abcda"/><polygon points="124.68 173.39 119.12 170.16 119.1 165.13 124.66 168.36 124.68 173.39" fill="#8abcda"/><polygon points="124.66 168.36 119.1 165.13 126.08 161.1 131.65 164.33 124.66 168.36" fill="#8abcda"/><polygon points="136.01 153.78 136.03 161.8 142.98 157.79 143 162.81 136.04 166.83 136.07 174.85 131.68 177.38 131.66 169.36 124.68 173.39 124.66 168.36 131.65 164.33 131.62 156.31 136.01 153.78" fill="#fff"/><polygon points="131.65 164.33 126.08 161.1 126.06 153.08 131.62 156.31 131.65 164.33" fill="#8abcda"/><polygon points="131.62 156.31 126.06 153.08 130.44 150.55 136.01 153.78 131.62 156.31" fill="#8abcda"/><path d="M25.41,318.72,20.72,316a3.37,3.37,0,0,0,1.32-.46,5.77,5.77,0,0,0,1.3-1A7.43,7.43,0,0,0,24.41,313a8,8,0,0,0,.72-1.67l4.69,2.73a8.17,8.17,0,0,1-.72,1.66A7.24,7.24,0,0,1,28,317.2a6,6,0,0,1-1.31,1.05A3.53,3.53,0,0,1,25.41,318.72Z" fill="#8abcda"/><path d="M29.82,314.09l-4.69-2.73a5.32,5.32,0,0,0,.27-1.69,2.9,2.9,0,0,0-.28-1.35L29.81,311a2.9,2.9,0,0,1,.27,1.35A5.37,5.37,0,0,1,29.82,314.09Z" fill="#8abcda"/><path d="M24.36,318.51l-4.68-2.72a1.76,1.76,0,0,0,1,.2l4.69,2.73A1.81,1.81,0,0,1,24.36,318.51Z" fill="#8abcda"/><path d="M29.81,311l-4.69-2.72a2,2,0,0,0-.72-.83l4.68,2.72A2,2,0,0,1,29.81,311Z" fill="#8abcda"/><path d="M24.38,307.48l4.68,2.72h0l-4.68-2.72Z" fill="#8abcda"/><path d="M34.92,306a7.31,7.31,0,0,1,.68,3.32,13.16,13.16,0,0,1-.67,4.09,18.42,18.42,0,0,1-1.85,3.95,18.84,18.84,0,0,1-2.84,3.51,17.62,17.62,0,0,1-3.59,2.74,10.74,10.74,0,0,1-3.52,1.37,4.63,4.63,0,0,1-2.79-.28,4,4,0,0,1-1.84-1.88,7.66,7.66,0,0,1-.67-3.41,12.62,12.62,0,0,1,.65-3.92,17.6,17.6,0,0,1,1.84-3.91,19.93,19.93,0,0,1,2.8-3.53,17.37,17.37,0,0,1,3.57-2.75,10.62,10.62,0,0,1,3.53-1.37,5.26,5.26,0,0,1,2.84.26A3.75,3.75,0,0,1,34.92,306Zm-5.1,8.13a5.37,5.37,0,0,0,.26-1.7,2.9,2.9,0,0,0-.27-1.35,2,2,0,0,0-.73-.83A1.7,1.7,0,0,0,28,310a3.39,3.39,0,0,0-1.31.46,6,6,0,0,0-1.31,1.05A7.2,7.2,0,0,0,24.33,313a8.51,8.51,0,0,0-.72,1.64,5.3,5.3,0,0,0-.28,1.66,3,3,0,0,0,.29,1.41,1.91,1.91,0,0,0,.72.83,1.79,1.79,0,0,0,1.07.22,3.53,3.53,0,0,0,1.31-.47A6,6,0,0,0,28,317.2a7.24,7.24,0,0,0,1.07-1.45,8.17,8.17,0,0,0,.72-1.66" fill="#fff"/><path d="M20.08,324.53,15.4,321.8a4,4,0,0,1-1.58-1.74,7.67,7.67,0,0,1-.68-3.42,12.86,12.86,0,0,1,.65-3.91,17.88,17.88,0,0,1,1.84-3.92,20.29,20.29,0,0,1,2.81-3.52A16.4,16.4,0,0,1,22,302.54a10.79,10.79,0,0,1,3.53-1.37,5.06,5.06,0,0,1,2.84.26l.38.19,4.69,2.73-.38-.2a5.26,5.26,0,0,0-2.84-.26,10.62,10.62,0,0,0-3.53,1.37A17.37,17.37,0,0,0,23.12,308a19.93,19.93,0,0,0-2.8,3.53,17.6,17.6,0,0,0-1.84,3.91,12.62,12.62,0,0,0-.65,3.92,7.66,7.66,0,0,0,.67,3.41A4.1,4.1,0,0,0,20.08,324.53Z" fill="#8abcda"/><polygon points="13.19 313.68 8.5 310.96 11.47 309.24 16.16 311.96 13.19 313.68" fill="#8abcda"/><polygon points="8.01 333.7 3.33 330.98 3.29 318.98 7.98 321.7 8.01 333.7" fill="#8abcda"/><polygon points="6.25 322.7 1.56 319.98 1.54 314.97 6.23 317.7 6.25 322.7" fill="#8abcda"/><polygon points="6.23 317.7 1.54 314.97 3.28 313.97 7.96 316.7 6.23 317.7" fill="#8abcda"/><polygon points="13.17 308.58 13.19 313.68 16.16 311.96 16.17 316.97 13.2 318.69 13.23 330.69 8.01 333.7 7.98 321.7 6.25 322.7 6.23 317.7 7.96 316.7 7.95 311.59 13.17 308.58" fill="#fff"/><polygon points="7.96 316.7 3.28 313.97 3.26 308.87 7.95 311.59 7.96 316.7" fill="#8abcda"/><polygon points="7.95 311.59 3.26 308.87 8.48 305.85 13.17 308.58 7.95 311.59" fill="#8abcda"/></svg>