<svg xmlns="http://www.w3.org/2000/svg" viewBox="0 0 301.74 148.84"><path fill="#fff" d="M144.12 20.8c1.63 5.95 5.47 11.35 11.69 11.35s10.12-5.46 11.73-11.46c1.76-.72 2.85-3.29 2.62-5.21a2.47 2.47 0 0 0-1.78-2.23C168 5.85 163.13 0 155.81 0s-12.14 5.8-12.56 13.15a2.5 2.5 0 0 0-2.11 2.33c-.25 2.04 1.01 4.8 2.98 5.32zM192.21 65.27a21.89 21.89 0 0 0 2.54-1.84c1.44-1.2 3-2.66 4.61-4.24 4.79-4.7 9.87-10.33 9.91-10.37a5.45 5.45 0 0 0-.14-7.44L220.76 30a1.67 1.67 0 1 0-2.33-2.38L206 39.76a5.41 5.41 0 0 0-4.86 1.73l-.16.17c-.75.83-4.28 4.7-7.83 8.27-1.52 1.54-3 3-4.3 4.13-.9-1-1.94-2.12-3-3.37-2.27-2.6-4.75-5.56-6.65-7.85L176.86 40l-.66-.81-.23-.28a4.26 4.26 0 0 0-.52-.52c-.51-.82-2.3-1.88-7.75-3.44a36.82 36.82 0 0 0-3.78-1 50 50 0 0 1-5 17c-.59-5.18-1.51-9.87-1.6-10.35l1.38-3.26-2.26-2.14h-1.6l-2.26 2.14 1.42 3.24c-.1.48-1 5.17-1.61 10.35a50 50 0 0 1-5-17 10.57 10.57 0 0 0-3.15 1.16 75.74 75.74 0 0 0-10.87 4.29c-1.33 1.36-6.11 7.94-7.73 29.05-.41 6.49.81 19.13.81 19.13.81 3.45 1.14 6.31 4.82 6.46s5.38-2.58 5.38-5.77A141.1 141.1 0 0 1 136 69c.38-7 2.33-17.08 3.25-17.48v33.3a15.77 15.77 0 0 0 .4 3.74v53.15a7.12 7.12 0 0 0 7.12 7.12 7.12 7.12 0 0 0 7.12-7.12V94.24h3.54v47.48a7.12 7.12 0 0 0 7.12 7.12 7.13 7.13 0 0 0 7.13-7.12V88.57a16.34 16.34 0 0 0 .39-3.74v-33.3-.08c.93 1.11 1.93 2.3 3 3.5 2 2.32 4 4.66 5.78 6.54.89.94 1.69 1.76 2.46 2.47a14.07 14.07 0 0 0 1.22 1c.23.17.48.34.81.54a6.81 6.81 0 0 0 1.47.63 6 6 0 0 0 1.65.23 6.31 6.31 0 0 0 1.82-.27 8.51 8.51 0 0 0 1.93-.82z"/><path fill="#fff" d="M297.71 12.24a4 4 0 0 0 4-4V7.1a4 4 0 0 0-4-4H193.52a4 4 0 0 0-4 4v1.12a4 4 0 0 0 4 4h2.13V44c1.8-1.91 3.21-3.45 3.61-3.89l.15-.16a7.68 7.68 0 0 1 .85-.77V12.24H291v68.17h-90.74V61.6c-1.57 1.51-2.87 2.7-4 3.64l-.6.47v14.7h-2.13a4 4 0 0 0-4 4v1.11a4 4 0 0 0 4 4H242V117a2.85 2.85 0 0 0-.39.33l-25.43 25.43a2.75 2.75 0 0 0 0 3.87l1.46 1.46a2.73 2.73 0 0 0 3.87 0l20.1-20.1a5.79 5.79 0 0 0 .39-.44v14.16a2.74 2.74 0 0 0 2.73 2.73h2.07a2.74 2.74 0 0 0 2.73-2.73v-12.93L268.78 148a2.73 2.73 0 0 0 3.87 0l1.46-1.46a2.75 2.75 0 0 0 0-3.87l-24.6-24.59V89.57h48.2a4 4 0 0 0 4-4v-1.14a4 4 0 0 0-4-4h-2.13V12.24z"/><path fill="#fff" d="M226.6 69.09v-5.17s-8.13 6.08-8 6.08h7.27a.84.84 0 0 0 .73-.91zM237.23 70a.84.84 0 0 0 .76-.91V55.28l-8.6 6.52-.18.14v7.15a.83.83 0 0 0 .79.91zM248.62 70a.84.84 0 0 0 .75-.91V50.88L247 48.45l-3.66 2.78-2.74 2.07v15.79a.84.84 0 0 0 .76.91zM260 70a.84.84 0 0 0 .75-.91V51.6l-3.47 2.73-.95.75a2.28 2.28 0 0 1-3-.19l-.37-.39-.95-1v15.59a.84.84 0 0 0 .76.91zM271.38 70a.84.84 0 0 0 .76-.91V42.64l-5.27 4.15-3.51 2.76v19.54a.84.84 0 0 0 .75.91z"/><path fill="#fff" d="M280 30.77a2.34 2.34 0 0 0-.69-1.66 2.29 2.29 0 0 0-1.66-.68h-10.8a2.44 2.44 0 0 0-.85.18l-.13.05a2.34 2.34 0 0 0-1.36 2.13A2.37 2.37 0 0 0 266 33a2.48 2.48 0 0 0 .86.16H271l-2.51 2-4.71 4.18-2.67 2.09-3.55 2.79-2.22 1.73-2.25-2.28-1-1-2.67-2.71-.54-.54a2.32 2.32 0 0 0-3.07-.23l-2.57 1.94-2.81 2.11-1.68 1.27-1 .75-8.75 6.6-.18.14-2.67 2-11.54 8.6-1.37 1a2.34 2.34 0 0 0 2.82 3.74l10.09-7.51 2.67-2 .18-.14 8.81-6.64 1-.77 1.66-1.25 2.82-2.03 3.71-2.87 2.43 2.47 2.67 2.71 1 1 .38.39a2.33 2.33 0 0 0 3.11.2l1-.76 3.55-2.79 2.67-2.09 3.6-2.81 7.59-6.51.28-.22V41a2.34 2.34 0 1 0 4.72 0zM91 31.48c-.31-.71-.66-1.26-1.14-1.26a1 1 0 0 0-.72.37c-.1.31-.2.61-.31.89z"/><path fill="#fff" d="M90.72 27.63c-.57 0-1 1-1.29 2a1.42 1.42 0 0 1 .42-.06c.93 0 1.45.87 1.87 1.89h.33c-.32-1.68-.77-3.83-1.33-3.83zM84.43 30.84c0 .13.09.26.13.38l.09.26h.59a1.91 1.91 0 0 0-.81-.64zM87.35 32.5c.07-.13.13-.26.19-.39h-1.13a1.33 1.33 0 0 0 .94.39zM86.11 33.68c.41 0 .72-.31 1-.75a2.08 2.08 0 0 1-1.37-.82h-.86c.33.89.72 1.57 1.23 1.57zM97.44 30.14c-.37 0-.67.58-.93 1.34h2.19c-.34-.73-.7-1.34-1.26-1.34zM93.18 34.46a.69.69 0 0 0 .42.16c.47 0 .88-1.23 1.2-2.51h-2.12c.14.74.32 1.59.5 2.35z"/><path fill="#fff" d="M97.34 26.76c-.66 0-1.19 2.4-1.54 4 0 .24-.1.48-.16.72H96c.34-1 .76-1.81 1.46-1.81a1.36 1.36 0 0 1 1.06.53c-.33-1.73-.74-3.44-1.18-3.44zM93.6 35.25h-.21c.21.62.44 1.05.69 1.05.64 0 1.08-1.73 1.43-3.12.09-.35.18-.7.28-1h-.3c-.43 1.71-.91 3.07-1.89 3.07zM74.88 23.3c-.62.29-1.12 4.82-1.47 8.18h2a4.3 4.3 0 0 1 .97-1.48c-.33-2.56-.87-6.6-1.5-6.7zM77.28 30.14a1.38 1.38 0 0 0-.2 0c0 .4.1.84.17 1.3h1.28c-.33-.69-.69-1.3-1.25-1.3zM76.57 31.48c0-.27-.07-.54-.1-.82a5.21 5.21 0 0 0-.46.82zM73.26 32.94c.19.31.41.5.66.5.56 0 .92-.6 1.26-1.33h-1.83c-.03.3-.06.56-.09.83zM78.62 37.14c.56 0 1-1.83 1.38-3.39a3.46 3.46 0 0 1-1.18-1.64h-1.48c.33 2.35.78 4.95 1.28 5.03zM80.76 33.43c.57-.08.92-.67 1.27-1.32h-1c-.08.35-.16.69-.22 1-.01.11-.03.21-.05.32zM83 31.48h1v-.06c-.07-.2-.14-.4-.22-.6a1.58 1.58 0 0 0-.78.66zM82.37 29c-.46 0-.86 1.22-1.18 2.52h1.19a2.27 2.27 0 0 1 1.15-1.1c-.31-.82-.68-1.42-1.16-1.42zM80.11 33.23a2 2 0 0 0 0-.24c.07-.3.13-.59.19-.88h-1a3.16 3.16 0 0 0 .81 1.12zM107.52 34.54h-.11c.31 3.26.7 6.28 1.19 6.69.65-.4 1.17-5.47 1.51-8.83v-.28h-1c-.32 1.34-.76 2.42-1.59 2.42zM99.71 33.36c.33 2 .83 4.72 1.38 4.72.43-.22.81-2.66 1.12-5.32-.34.66-.76 1.16-1.41 1.16a1.4 1.4 0 0 1-1.09-.56zM115.1 34.46c.28 1.61.61 2.94 1 3 .65 0 1.18-2.59 1.54-4.3.07-.36.14-.7.21-1h-1.57l-.09.23a5.93 5.93 0 0 1-1.09 2.07zM115 33.81a9.5 9.5 0 0 0 .69-1.62v-.08h-1c.13.56.21 1.13.31 1.7zM119 31.48l-.23-.42c0 .14-.07.28-.11.42zM116.48 31.48H118c.09-.39.19-.75.29-1.08a1 1 0 0 0-.65-.26c-.52 0-.86.6-1.16 1.34zM123.56 33.68a2 2 0 0 0 1.6-1c.18-.2.37-.4.57-.59h-3c-.08.12-.17.24-.26.35.3.71.65 1.24 1.09 1.24zM119.81 29c-.32 0-.61.63-.87 1.47a6.92 6.92 0 0 1 .57.94l.06.11h1.81v-.06c-.38-1.19-.88-2.46-1.57-2.46zM124.32 30.77a1.43 1.43 0 0 0-1.16.71H126l-.18-.13a2.23 2.23 0 0 0-1.5-.58zM121 32.82a1.18 1.18 0 0 0 .8-.32l-.15-.39h-1.68a1.29 1.29 0 0 0 1.03.71zM114.24 34.39a.42.42 0 0 0 .16 0c-.11-.65-.22-1.4-.34-2.24h-1c.31 1.13.68 2.24 1.18 2.24zM112.32 23.62c-.37.17-.71 1.9-1 4 .72.42 1.08 1.86 1.48 3.5l.09.37H114c0-.29-.08-.59-.12-.91-.36-2.58-.88-6.86-1.56-6.96zM106.6 33.11c0-.32-.06-.65-.09-1h-.3a10.43 10.43 0 0 0 .39 1zM104.81 19.54c-.65.43-1.17 5.76-1.51 9.29l-.06.64a1.24 1.24 0 0 1 .92-.43c1 0 1.41 1.15 1.84 2.44h.46c0-.35-.06-.7-.09-1.08-.37-4.35-.86-10.28-1.56-10.86z"/><path fill="#fff" d="M100.8 33.44c.5 0 .85-.6 1.16-1.33h-2.42c.33.73.69 1.33 1.26 1.33zM105.47 31.48c-.34-1-.73-2-1.31-2s-.76.46-1 1.06c0 .31-.07.62-.1.91zM109.34 31.48h.87c.13-1.29.26-2.43.38-3.4a7.39 7.39 0 0 0-1.14 3c-.04.12-.07.26-.11.4zM112.38 31.48c0-.09 0-.17-.07-.26a9.67 9.67 0 0 0-1-3c-.14 1.09-.26 2.24-.37 3.3zM71.16 40.9c.61-.4 1.1-4.83 1.44-8.15-.09-.2-.18-.41-.27-.64h-2.49c.33 4.07.76 8.26 1.32 8.79zM107.36 34h.16c.47 0 .83-.92 1.13-2h-1.46c.06.74.11 1.39.17 2zM92.05 32.32c.1.28.21.56.32.83-.07-.33-.13-.68-.2-1H92a1.8 1.8 0 0 0 .05.17zM26.21 34c.55 0 1-.89 1.31-1.88h-2.15a4.87 4.87 0 0 1-.31.6c.32.71.67 1.28 1.15 1.28zM26.76 30.46c-.52 0-.8.38-1.1 1h2.07v-.09c0-.1.07-.2.1-.3a1.35 1.35 0 0 0-1.07-.61zM38.76 31.48h.58c-.07-.36-.14-.75-.21-1.15-.09.24-.17.5-.24.74s-.09.27-.13.41zM30 29c-.62 0-1.05 1.11-1.42 2.21l.13.18.09.13h2.48C30.9 30.22 30.48 29 30 29zM37 33.44c.44 0 .76-.59 1-1.33h-2.41l-.09.53a1.86 1.86 0 0 0 1.5.8zM22.47 29.59c-.46 0-.8.48-1.11 1.1a3.6 3.6 0 0 1 .66.79h1.84c-.37-.99-.78-1.89-1.39-1.89zM37.44 24.25c-.64 0-1.22 3.81-1.53 5.86-.08.48-.15.94-.22 1.37h2.54c.06-.18.11-.36.17-.54a15.39 15.39 0 0 1 .6-1.59c-.38-1.97-.92-5.1-1.56-5.1zM30.14 32.5a2.7 2.7 0 0 0 1.29-.29v-.1h-2.17a1.22 1.22 0 0 0 .88.39zM33.7 35.88c.41 0 .8-1.58 1.11-3.25a2 2 0 0 0-.78-.52h-1.18a2.92 2.92 0 0 0-.69.25c.37 1.49.84 3.52 1.54 3.52zM23.71 33.13a.86.86 0 0 0 .67-.32c-.1-.23-.19-.46-.28-.7h-1.69c.35.55.71 1.02 1.3 1.02zM5.82 31.42l-.09.06h1.74a2.84 2.84 0 0 0 .79-.32 1.13 1.13 0 0 0-.76-.31 2.59 2.59 0 0 0-1.68.57zM21.41 31.48a1.65 1.65 0 0 0-.26-.32c0 .1-.08.21-.13.32z"/><path fill="#fff" d="M141.11 24.35c-26.12-16.11-63.5-17-74.88-17h-.7C29.34 7.33 0 17.41 0 29.85v.23a7.35 7.35 0 0 0 .18 1.4h3.57a2.65 2.65 0 0 0 1.68-.57 3.3 3.3 0 0 1 2.07-.69 1.88 1.88 0 0 1 1.39.63 3.23 3.23 0 0 1 1.28-.24 3.29 3.29 0 0 1 1.82.51 3.51 3.51 0 0 0 .83.35c.5-1.09 1-2.19 2.16-2.19s1.63 1.08 2.1 2.2h.46a2.6 2.6 0 0 0 .93-.5 2.83 2.83 0 0 1 1.86-.68 1.63 1.63 0 0 1 .45.07c.39-.79.89-1.41 1.69-1.41 1.11 0 1.64 1.25 2.11 2.52h.52c.33-.74.74-1.5 1.66-1.5a1.79 1.79 0 0 1 1.29.57c.43-1.22.94-2.22 1.91-2.22s1.52 1.39 2 3.15H35c.08-.53.16-1 .23-1.46.62-4.09 1-6.4 2.2-6.4S39 25.46 39.5 28.5a1.07 1.07 0 0 1 .82-.4c1 0 1.47 1.38 1.93 2.84 0 .18.11.36.17.54h.25l.06-.23c.51-2 1-3.86 2.2-3.86.9 0 1.36 1.37 1.8 3.71a3.34 3.34 0 0 1 2-1.12 2.81 2.81 0 0 1 1.72.85c.49-3.21.93-5 1.93-5s1.38 1.75 1.89 5.66H55l.21-.69c.46-1.55.89-3 1.92-3a1.11 1.11 0 0 1 .55.16v-.41c.74-11.56 1.12-14.92 2.21-14.92s1.41 3 2.21 17.75v.09c.39-.91.85-1.72 1.72-1.72.7 0 1.12.76 1.46 1.8.72-10.67 1.08-13.85 2.11-13.85s1.46 2.75 2.19 12.13a1.18 1.18 0 0 1 1-.73c1 0 1.46 1.38 1.92 2.84.06.18.11.36.17.54h.08c.65-6.24 1-8.81 2.15-8.81s1.5 2.16 2.14 7a2.3 2.3 0 0 1 .26 0c.93 0 1.39.89 1.81 1.81h1.39c.42-1.8.91-3.15 1.87-3.15s1.45.92 1.87 2a2.44 2.44 0 0 1 1.63 1.14h2a4.52 4.52 0 0 1 1-1.47c.46-1.46.9-2.85 1.93-2.85s1.34 1.64 1.85 4.33H95c.07-.3.13-.59.19-.85.53-2.41 1-4.5 2.2-4.5s1.53 2 2.07 5.35h2.8v-.08l.16-.43c.08-.76.16-1.51.22-2.19.69-7 1.08-9.88 2.21-9.88s1.48 2.72 2.21 11.45c0 .37.06.75.1 1.13h1.68c0-.18.09-.36.13-.53.43-1.66.83-3.21 1.72-3.44.42-3.15.85-4.52 1.65-4.52 1.12 0 1.53 2.29 2.21 7.51 0 .3.08.63.13 1h1.28c.38-1 .84-1.81 1.66-1.81a1.38 1.38 0 0 1 .8.25c.35-1 .77-1.59 1.41-1.59 1.18 0 1.7 1.47 2.2 2.89l.09.26h.46a2.12 2.12 0 0 1 1.76-1.18 2.76 2.76 0 0 1 1.85.68 2.64 2.64 0 0 0 .92.5h3.75a9.26 9.26 0 0 0 .2-1.4v-.23c.09-2.61-1.29-5.11-3.67-7.44a117 117 0 0 1 13.72 1.92z"/><path fill="#fff" d="M9.2 31.24l.17.24h2.27a2.66 2.66 0 0 0-1.47-.39 2.86 2.86 0 0 0-.97.15zM127.3 32.11a2 2 0 0 0-1.6 1 2.67 2.67 0 0 1-2.14 1.22c-.74 0-1.22-.57-1.6-1.35a1.6 1.6 0 0 1-1 .33 1.93 1.93 0 0 1-1.61-1.18h-.83c-.09.4-.18.8-.25 1.16-.53 2.58-1 4.81-2.2 4.81-.75 0-1.19-1-1.59-3.26a.93.93 0 0 1-.24 0c-.88 0-1.31-1.2-1.7-2.75h-1.72v.34c-.69 6.68-1.08 9.41-2.21 9.41-.91 0-1.33-1.93-1.88-7.69a5.57 5.57 0 0 1-1-2.06H103c-.51 4.64-.94 6.6-1.87 6.6-1.17 0-1.6-2.37-2.21-6.24l-.06-.36h-2.55c-.11.38-.21.78-.31 1.15-.45 1.79-.88 3.49-1.92 3.49-.6 0-1-.65-1.29-1.77a5.38 5.38 0 0 1-1.38-2.46c-.06-.13-.11-.27-.16-.41h-2.72a1.87 1.87 0 0 1-.57.66c-.42.84-.94 1.54-1.85 1.54s-1.51-1-2-2.2H82.6l-.06.1c-.42.8-.9 1.69-1.89 1.7-.46 2.14-1 3.86-2 3.86s-1.41-1.75-2-5.66h-.93c-.42.92-.88 1.81-1.81 1.81a1.09 1.09 0 0 1-.73-.3c-.6 5.6-1 7.92-2.06 7.92s-1.37-2.21-2-9.43h-.02c-.46 2-.88 3.69-1.9 3.69-.69 0-1.1-.73-1.44-1.74-.68 10.85-1.07 14.09-2.11 14.09s-1.38-2.68-2.09-15.45a1.36 1.36 0 0 1-1.08.59c-.63 0-1-.49-1.36-1.18h-1c-.56 7.91-1 10.37-1.91 10.37C55 42.48 54.63 40 54 34.19v-.3a.76.76 0 0 1-.16 0c-.95 0-1.83-.92-2.68-1.81H51c0 .23-.07.46-.1.67-.62 4.39-1 6.87-2.2 6.87s-1.6-2.31-2.21-6.08c-.07-.39-.14-.84-.22-1.3-.82.83-1.67 1.65-2.57 1.65a1.17 1.17 0 0 1-.89-.46c-.37 1-.84 1.79-1.6 1.79s-1.3-1.16-1.72-3.14h-.92c-.37 1-.81 1.81-1.59 1.81a2.15 2.15 0 0 1-1.58-.69c-.41 2.11-.85 3.28-1.68 3.28-1.17 0-1.64-1.76-2.15-3.83a3.2 3.2 0 0 1-1.41.29 1.9 1.9 0 0 1-1.54-.86h-.37c-.46 1.35-1 2.51-2 2.51-.75 0-1.23-.57-1.62-1.33a1.32 1.32 0 0 1-.88.31c-1 0-1.46-.78-1.89-1.49h-1.09c-.46 1.13-1 2.2-2 2.2s-1.63-1.09-2.11-2.2h-3.4c-.46 1-1 1.88-2 1.88s-1.69-.92-2.17-1.73L9 32.11H.35c3.29 11.37 31.21 20.26 65.18 20.26h.65c33.83-.1 61.1-8.08 64.5-20.26z"/><path fill="#fff" d="M11.24 33.37c.56 0 .93-.56 1.28-1.26H9.76c.47.78.84 1.26 1.48 1.26zM18.79 31.35l-.18.13h1.69l.27-.65a.94.94 0 0 0-.24-.06 2.26 2.26 0 0 0-1.54.58zM15 29.91c-.64 0-1 .73-1.43 1.57h2.8c-.37-.83-.79-1.57-1.37-1.57zM18.73 33.68c.57 0 1-.73 1.31-1.57h-2.69c.37.83.77 1.57 1.38 1.57zM40.32 28.57c-.27 0-.5.24-.71.6a1.7 1.7 0 0 1 0 .22c.1.61.23 1.36.38 2.09h1.86c0-.14-.09-.27-.13-.41-.33-1.17-.72-2.5-1.4-2.5zM58.86 31.48c-.1-.28-.2-.58-.3-.88s-.21-.62-.33-.92q-.06.95-.12 1.8zM54.63 34.12c.34 2.92.85 7.3 1.49 7.71.54-.64 1-5.12 1.27-9.72h-2.08a4.11 4.11 0 0 1-.75 1.42c.02.19.04.38.07.59zM57.12 28.26c-.64 0-1.06 1.41-1.43 2.65-.06.19-.12.38-.17.57h1.92c.06-1 .13-2 .19-2.94a.7.7 0 0 0-.51-.28zM59.89 13.34c-.68 1.16-1.16 8.67-1.52 14.23 0 .37 0 .7-.07 1.05a9.76 9.76 0 0 1 .7 1.85l.36 1h2.1c0-.36 0-.71-.06-1.09-.34-7.03-.81-15.73-1.51-17.04zM60.48 32.82c.36 0 .65-.3.89-.71h-1.68c.22.42.48.71.79.71zM67.2 35.33c.6 0 1-1.73 1.38-3.22h-2.7V32.54c.31 1.32.73 2.79 1.32 2.79zM67.41 17.39c-.67 1-1.12 8-1.49 14.09h2.81c.09-.41.19-.79.29-1.15s-.06-.77-.09-1.19c-.36-4.62-.85-10.88-1.52-11.75zM63.84 29.2c-.67 0-1.06 1-1.44 1.89-.06.13-.11.26-.16.39h2.81c-.31-1.16-.7-2.28-1.21-2.28zM65.18 32.4v-.29h-3c.36 6.65.8 14.08 1.45 15.3.71-1.21 1.18-8.83 1.55-15.01zM52.41 26.45c-.51 0-1 2.74-1.33 5a.46.46 0 0 1 .07.07h2.47c-.32-2.52-.73-4.91-1.21-5.07zM44.93 28c-.67 0-1.17 1.95-1.54 3.37v.09h2.74c-.34-1.72-.75-3.46-1.2-3.46zM43.68 33.44c.64 0 1.34-.63 2-1.33H43.2l-.21.76c.2.34.43.57.69.57zM48.68 39c.63 0 1.22-4.12 1.53-6.33 0-.21.06-.39.09-.59h-3.39c.08.43.15.89.23 1.37.33 2.1.86 5.55 1.54 5.55zM41.19 34.62c.45 0 .83-.9 1.14-1.93-.08-.18-.16-.38-.23-.58h-1.94c.29 1.35.64 2.51 1.03 2.51zM47.05 31.48h3.34v-.06a2.75 2.75 0 0 0-1.63-1 2.91 2.91 0 0 0-1.71 1.06zM54.47 32.8a4.46 4.46 0 0 0 .3-.69h-.38c.02.22.05.46.08.69zM53.76 33.44h.1l-.15-1.31h-2c.73.68 1.42 1.31 2.05 1.31zM70.56 28.57c-.35 0-.64.59-.89 1.36 0 .51.08 1 .12 1.55h2.33c0-.14-.08-.27-.13-.41-.37-1.17-.78-2.5-1.43-2.5z"/></svg>