<svg xmlns="http://www.w3.org/2000/svg" viewBox="0 0 374.07 309.08"><title>logo</title><g style="isolation:isolate"><polygon points="144.6 230.07 140.34 227.6 138.77 222.63 143.03 225.11 144.6 230.07" fill="#95c4df"/><polygon points="134.25 222.49 129.99 220.02 136.78 216.1 141.04 218.58 134.25 222.49" fill="#95c4df"/><polygon points="141.04 218.58 136.78 216.1 133.33 205.31 137.59 207.78 141.04 218.58" fill="#95c4df"/><path d="M142.89,195.5l11.71,28.8-10,5.78-1.57-5-10.83,6.26-1.49,6.73L121,243.72l11.51-42.21Zm-8.64,27,6.79-3.91-3.45-10.8-3.34,14.71" fill="#d5e7f2"/><polygon points="120.97 243.72 116.71 241.25 128.22 199.04 132.47 201.51 120.97 243.72" fill="#95c4df"/><polygon points="132.47 201.51 128.22 199.04 138.63 193.02 142.89 195.5 132.47 201.51" fill="#95c4df"/></g><g style="isolation:isolate"><path d="M112.41,181l-4.26-2.48c1,.56,2.23.37,3.84-.56a8.87,8.87,0,0,0,3.14-2.92,6.05,6.05,0,0,0,1.1-3.2,1.86,1.86,0,0,0-.88-1.76l4.26,2.47a1.88,1.88,0,0,1,.88,1.77,6,6,0,0,1-1.1,3.19,8.72,8.72,0,0,1-3.14,2.93C114.64,181.39,113.37,181.57,112.41,181Z" fill="#95c4df"/><path d="M123.13,159.46l4.27,2.47a5.68,5.68,0,0,0-2.84-.67c-1.81,0-4.8.66-9,2.05-1.68.56-2.75.74-3.21.53l-4.26-2.47q.69.3,3.21-.54,6.27-2.07,9-2.05A5.72,5.72,0,0,1,123.13,159.46Z" fill="#95c4df"/><path d="M114.17,154.9l4.26,2.47a3.36,3.36,0,0,1,1.29,2.5l-4.27-2.47A3.33,3.33,0,0,0,114.17,154.9Z" fill="#95c4df"/><path d="M105.19,190.34l-4.26-2.48c-2-1.16-3.18-3.46-3.46-6.88l4.26,2.48C102,186.88,103.16,189.18,105.19,190.34Z" fill="#95c4df"/><polygon points="101.73 183.46 97.47 180.98 106.55 175.08 110.81 177.56 101.73 183.46" fill="#95c4df"/><path d="M112.2,163.76l-4.26-2.48a.91.91,0,0,0,.17.09l4.26,2.47Z" fill="#95c4df"/><path d="M121.78,146.1l4.26,2.47a4.32,4.32,0,0,0-1.05-.41q-3.12-.74-9,2.68l-4.26-2.47q5.93-3.42,9-2.69A4,4,0,0,1,121.78,146.1Z" fill="#95c4df"/><path d="M105.08,173.86l-4.27-2.47q-2.2-1.29-2.22-5.06a15.4,15.4,0,0,1,1.36-6,21.74,21.74,0,0,1,4.15-6.22,32.2,32.2,0,0,1,7.59-5.78l4.26,2.47a32.47,32.47,0,0,0-7.59,5.78,22.09,22.09,0,0,0-4.15,6.22,15.48,15.48,0,0,0-1.36,6C102.86,171.32,103.6,173,105.08,173.86Z" fill="#95c4df"/><path d="M116,150.84q5.92-3.42,9-2.68c2.08.49,3.31,2.46,3.72,5.92l-9,5.79c-.25-1.46-.76-2.32-1.53-2.61s-1.82,0-3.17.74a7.1,7.1,0,0,0-2.5,2.26,4.61,4.61,0,0,0-.85,2.46,1.1,1.1,0,0,0,.7,1.12c.46.21,1.53,0,3.21-.53,4.18-1.39,7.17-2.06,9-2.05a4.73,4.73,0,0,1,4,1.66,7.49,7.49,0,0,1,1.24,4.54,18.47,18.47,0,0,1-1.63,7.25,24.27,24.27,0,0,1-4.58,7,31.29,31.29,0,0,1-7.43,5.79q-7.89,4.54-10.93,2.82c-2-1.16-3.18-3.46-3.46-6.88l9.08-5.9a5.1,5.1,0,0,0,1.22,3.18q1.47,1.31,4.22-.28a8.72,8.72,0,0,0,3.14-2.93,6,6,0,0,0,1.1-3.19,1.85,1.85,0,0,0-1.06-1.86c-.7-.32-2.34-.06-4.9.77q-6.27,2-9,.86c-1.81-.76-2.71-2.53-2.72-5.3a15.48,15.48,0,0,1,1.36-6,22.09,22.09,0,0,1,4.15-6.22A32.47,32.47,0,0,1,116,150.84Z" fill="#2580d3"/></g><g style="isolation:isolate"><path d="M104.56,245.06l-4.26-2.47a2.29,2.29,0,0,0,1.56-.44,5.4,5.4,0,0,0,2.35-2.73,13.54,13.54,0,0,0,.74-5l4.26,2.47a13.35,13.35,0,0,1-.74,5.05,5.42,5.42,0,0,1-2.35,2.72A2.24,2.24,0,0,1,104.56,245.06Z" fill="#95c4df"/><path d="M104.22,244.91,100,242.44a1.75,1.75,0,0,0,.34.15l4.26,2.47A1,1,0,0,1,104.22,244.91Z" fill="#95c4df"/><path d="M97.05,254.6l-4.26-2.48a4.68,4.68,0,0,1-1.44-1.34,11.74,11.74,0,0,1-1.68-5.95l4.26,2.47a11.71,11.71,0,0,0,1.68,5.95A4.6,4.6,0,0,0,97.05,254.6Z" fill="#95c4df"/><polygon points="93.93 247.3 89.67 244.82 98.8 238.13 103.06 240.6 93.93 247.3" fill="#95c4df"/><path d="M118.71,209.46l.06,19.29a41.16,41.16,0,0,1-.91,9.78,21.88,21.88,0,0,1-3.76,7.56,23.55,23.55,0,0,1-7.26,6.39c-3.12,1.8-5.53,2.71-7.25,2.73a4.51,4.51,0,0,1-4-2,11.71,11.71,0,0,1-1.68-5.95l9.13-6.7a11.27,11.27,0,0,0,.36,3.28,1.75,1.75,0,0,0,1.14,1.18,2.24,2.24,0,0,0,1.56-.44,5.42,5.42,0,0,0,2.35-2.72,13.35,13.35,0,0,0,.74-5.05L109.15,215Z" fill="#d5e7f2"/><polygon points="109.21 236.85 104.95 234.38 104.89 212.5 109.15 214.98 109.21 236.85" fill="#95c4df"/><polygon points="109.15 214.98 104.89 212.5 114.45 206.98 118.71 209.46 109.15 214.98" fill="#95c4df"/></g><g style="isolation:isolate"><polygon points="81.78 198.68 77.52 196.2 94 186.69 98.27 189.16 81.78 198.68" fill="#95c4df"/><polygon points="81.74 184.44 77.48 181.97 92.34 173.39 96.6 175.86 81.74 184.44" fill="#95c4df"/><polygon points="97.72 161.97 97.75 169.55 81.73 178.8 81.74 184.44 96.6 175.86 96.62 183.1 81.77 191.68 81.78 198.68 98.27 189.16 98.29 197.21 72.24 212.25 72.14 176.74 97.72 161.97" fill="#2580d3"/><polygon points="72.24 212.25 67.98 209.77 67.88 174.26 72.14 176.74 72.24 212.25" fill="#95c4df"/><polygon points="72.14 176.74 67.88 174.26 93.46 159.49 97.72 161.97 72.14 176.74" fill="#95c4df"/></g><g style="isolation:isolate"><path d="M50.37,155.94l-4.26-2.48q1.41.82,3.9-.61a10.37,10.37,0,0,0,5.24-9.22l4.26,2.48a10.37,10.37,0,0,1-5.24,9.21Q51.78,156.76,50.37,155.94Z" fill="#95c4df"/><polygon points="59.52 146.11 55.25 143.63 55.19 121.98 59.45 124.46 59.52 146.11" fill="#95c4df"/><polygon points="59.45 124.46 55.19 121.98 64.72 116.48 68.98 118.96 59.45 124.46" fill="#95c4df"/><path d="M43,166l-4.26-2.48a5,5,0,0,1-.64-.42,5.64,5.64,0,0,1-2-2.91,18.73,18.73,0,0,1-.9-5.49l4.26,2.48a18.62,18.62,0,0,0,.9,5.48,5.63,5.63,0,0,0,2.05,2.92C42.59,165.76,42.8,165.9,43,166Z" fill="#95c4df"/><path d="M69,119,69,140.11a26.33,26.33,0,0,1-.83,6.43A25.78,25.78,0,0,1,65.54,153a24.43,24.43,0,0,1-3.82,5.16,31.61,31.61,0,0,1-6.67,5,51.45,51.45,0,0,1-4.93,2.48,11.06,11.06,0,0,1-4.46,1.13,5.54,5.54,0,0,1-3.28-1.17,5.63,5.63,0,0,1-2.05-2.92,18.62,18.62,0,0,1-.9-5.48l-.06-21.16,9.52-5.5L49,152.21c0,1.94.49,3.18,1.42,3.73s2.24.34,3.9-.62a10.37,10.37,0,0,0,5.24-9.21l-.06-21.65Z" fill="#fff"/><polygon points="39.43 157.21 35.17 154.73 35.11 133.58 39.37 136.06 39.43 157.21" fill="#95c4df"/><polygon points="39.37 136.06 35.11 133.58 44.63 128.08 48.89 130.56 39.37 136.06" fill="#95c4df"/></g><g style="isolation:isolate"><polygon points="81.05 266.77 76.79 264.29 65.16 251.48 69.42 253.95 81.05 266.77" fill="#95c4df"/><polygon points="81 250.91 76.74 248.43 76.69 228.78 80.95 231.26 81 250.91" fill="#95c4df"/><polygon points="80.95 231.26 76.69 228.78 85.69 223.59 89.95 226.06 80.95 231.26" fill="#95c4df"/><polygon points="89.95 226.06 90.05 261.57 81.05 266.77 69.42 253.95 69.48 273.45 60.5 278.63 60.4 243.12 69.32 237.98 81 250.91 80.95 231.26 89.95 226.06" fill="#d5e7f2"/><polygon points="60.5 278.63 56.24 276.15 56.14 240.65 60.4 243.12 60.5 278.63" fill="#95c4df"/><polygon points="60.4 243.12 56.14 240.65 65.06 235.5 69.32 237.98 60.4 243.12" fill="#95c4df"/></g><g style="isolation:isolate"><path d="M57.91,201.7l4.26,2.48a2.2,2.2,0,0,0-.49-.22,6.5,6.5,0,0,0-2.49.12l-4.26-2.47a6.35,6.35,0,0,1,2.49-.13A2.2,2.2,0,0,1,57.91,201.7Z" fill="#95c4df"/><polygon points="58.42 220.23 54.16 217.75 49.02 209.85 53.28 212.32 58.42 220.23" fill="#95c4df"/><path d="M47.62,208.24l4.26,2.48a4.77,4.77,0,0,1,1.4,1.61L49,209.85A4.87,4.87,0,0,0,47.62,208.24Z" fill="#95c4df"/><path d="M54.9,200.62l-4.26-2.48a5.81,5.81,0,0,0,1.55-2l4.26,2.47A5.75,5.75,0,0,1,54.9,200.62Z" fill="#95c4df"/><path d="M52.38,202.56l-4.26-2.47a24,24,0,0,0,2.52-2l4.26,2.48A23.43,23.43,0,0,1,52.38,202.56Z" fill="#95c4df"/><path d="M52,191.72l4.26,2.47c.52.31.78,1,.78,2a5.37,5.37,0,0,1-.59,2.4l-4.26-2.47a5.57,5.57,0,0,0,.59-2.41C52.78,192.7,52.52,192,52,191.72Z" fill="#95c4df"/><polygon points="48.35 204.89 44.09 202.41 48.12 200.09 52.38 202.56 48.35 204.89" fill="#95c4df"/><path d="M60.06,181.71l4.26,2.48a4,4,0,0,0-2.93-.37,25.71,25.71,0,0,0-6.76,3l-4.26-2.48a25.26,25.26,0,0,1,6.76-3A4,4,0,0,1,60.06,181.71Z" fill="#95c4df"/><path d="M64.56,206.38,69.21,214l-10.79,6.23-5.14-7.9c-.64-1.05-1.22-1.62-1.73-1.75a3.26,3.26,0,0,0-2.34.53l-.84.48,0,14.42-9.59,5.53-.1-35.5,15.91-9.19a25.71,25.71,0,0,1,6.76-3,3.85,3.85,0,0,1,3.79,1.05q1.44,1.55,1.45,4.92a15.68,15.68,0,0,1-1.08,5.74,20.75,20.75,0,0,1-3,5.22,23.38,23.38,0,0,1-3.35,3.33,6.5,6.5,0,0,1,2.49-.12,4.75,4.75,0,0,1,1.53,1A6.42,6.42,0,0,1,64.56,206.38Zm-8.11-7.77a5.37,5.37,0,0,0,.59-2.4c0-1.15-.32-1.85-.95-2.1s-1.83.14-3.57,1.15l-4.19,2.42,0,7.21,4-2.33a23.43,23.43,0,0,0,2.52-1.94,5.75,5.75,0,0,0,1.55-2" fill="#2580d3"/><polygon points="38.72 196.04 34.46 193.56 50.37 184.38 54.63 186.85 38.72 196.04" fill="#95c4df"/><polygon points="38.82 231.54 34.56 229.07 34.46 193.56 38.72 196.04 38.82 231.54" fill="#95c4df"/></g><g style="isolation:isolate"><polygon points="27.9 178.23 23.64 175.76 22.07 170.8 26.33 173.28 27.9 178.23" fill="#95c4df"/><polygon points="17.55 170.65 13.29 168.18 20.07 164.26 24.33 166.73 17.55 170.65" fill="#95c4df"/><polygon points="24.33 166.73 20.07 164.26 16.62 153.47 20.88 155.95 24.33 166.73" fill="#95c4df"/><path d="M26.18,143.67l11.71,28.79-10,5.77-1.57-5-10.84,6.26L14,186.26l-9.74,5.62,11.51-42.2Zm-8.63,27,6.78-3.92L20.88,156l-3.33,14.7" fill="#fff"/><polygon points="4.26 191.88 0 189.4 11.51 147.2 15.77 149.68 4.26 191.88" fill="#95c4df"/><polygon points="15.77 149.68 11.51 147.2 21.92 141.19 26.18 143.67 15.77 149.68" fill="#95c4df"/></g><g style="isolation:isolate"><path d="M87.39,135.81l-4.26-2.48a16.35,16.35,0,0,0,4.26-3.22,10.74,10.74,0,0,0,2-3.8l4.26,2.47a10.79,10.79,0,0,1-2,3.81A16.57,16.57,0,0,1,87.39,135.81Z" fill="#95c4df"/><polygon points="85.05 137.16 80.79 134.68 83.13 133.33 87.39 135.81 85.05 137.16" fill="#95c4df"/><path d="M88.28,112.83l4.26,2.47.16.1c1.07.78,1.61,3,1.62,6.8a23.34,23.34,0,0,1-.7,6.58l-4.26-2.47a23.39,23.39,0,0,0,.7-6.58q0-5.64-1.62-6.8Z" fill="#95c4df"/><path d="M95.6,102.68l4.26,2.47a6,6,0,0,0-3.47-.7c-1.73.12-4,1-6.78,2.6l-4.26-2.48c2.8-1.61,5.05-2.48,6.78-2.6A6,6,0,0,1,95.6,102.68Z" fill="#95c4df"/><path d="M103.13,110a24.64,24.64,0,0,1,.77,6.45,33.18,33.18,0,0,1-1.1,9.47A29.43,29.43,0,0,1,99.69,133a22.92,22.92,0,0,1-4.29,5.3,35.46,35.46,0,0,1-5.69,4.25l-14.18,8.2-.11-35.5,14.19-8.19c2.8-1.62,5-2.48,6.78-2.6a5.62,5.62,0,0,1,4.28,1.29A8.46,8.46,0,0,1,103.13,110Zm-9.51,18.77a23.34,23.34,0,0,0,.7-6.58c0-3.76-.55-6-1.62-6.8s-2.85-.43-5.32,1L85,117.77l0,19.39,2.34-1.35a16.57,16.57,0,0,0,4.26-3.22,10.79,10.79,0,0,0,2-3.81" fill="#fff"/><polygon points="75.53 150.74 71.26 148.26 71.16 112.76 75.42 115.24 75.53 150.74" fill="#95c4df"/><polygon points="75.42 115.24 71.16 112.76 85.35 104.57 89.61 107.05 75.42 115.24" fill="#95c4df"/></g><g style="isolation:isolate"><polygon points="118.81 90.19 118.92 125.68 109.35 131.21 109.25 95.71 118.81 90.19" fill="#fff"/><polygon points="109.35 131.21 105.09 128.73 104.99 93.23 109.25 95.71 109.35 131.21" fill="#95c4df"/><polygon points="109.25 95.71 104.99 93.23 114.55 87.71 118.81 90.19 109.25 95.71" fill="#95c4df"/></g><path d="M136.14,106.17l-4.26-2.48q1.69,1,4.42-.59a12.16,12.16,0,0,0,4.76-5l4.26,2.48a12,12,0,0,1-4.76,5Q137.83,107.15,136.14,106.17Z" fill="#95c4df"/><path d="M128.86,115.85l-4.27-2.48a7.26,7.26,0,0,1-2.18-2q-2.13-2.91-2.16-9.13a31.28,31.28,0,0,1,15.91-27.59q7.71-4.45,11.89-2.1L152.31,75q-4.19-2.34-11.89,2.11a31.24,31.24,0,0,0-15.9,27.59q0,6.22,2.16,9.13A7.15,7.15,0,0,0,128.86,115.85Z" fill="#95c4df"/><path d="M148.14,72.58l4.26,2.47-.09,0-4.26-2.47Z" fill="#95c4df"/><path d="M140.67,82.34l4.26,2.47.27.17c1.17.87,1.77,3,1.78,6.32,0,4-.55,7-1.66,9.23l-4.26-2.48c1.11-2.18,1.67-5.26,1.66-9.23,0-3.34-.61-5.45-1.78-6.31Z" fill="#95c4df"/><path d="M152.31,75q4.2,2.35,4.22,10.92a32.82,32.82,0,0,1-1.8,11.27,31.45,31.45,0,0,1-5.25,9.24,30.88,30.88,0,0,1-8.58,7.17c-3.49,2-6.37,3-8.66,3.08a6.38,6.38,0,0,1-5.56-2.85q-2.15-2.91-2.16-9.13a31.24,31.24,0,0,1,15.9-27.59Q148.13,72.66,152.31,75Zm-7,25.53c1.11-2.19,1.67-5.26,1.66-9.23,0-3.35-.61-5.45-1.78-6.32s-2.77-.71-4.78.44a12.06,12.06,0,0,0-4.63,5,19,19,0,0,0-1.73,8.78c0,3.58.6,5.83,1.76,6.72s2.74.78,4.74-.38a12,12,0,0,0,4.76-5" fill="#fff"/><g style="isolation:isolate"><path d="M26.92,200.93l4.26,2.48-.16-.09-4.26-2.47Z" fill="#95c4df"/><path d="M19.35,222.38l-4.26-2.47A11.14,11.14,0,0,0,19,216.56L23.23,219A11,11,0,0,1,19.35,222.38Z" fill="#95c4df"/><path d="M23.23,219,19,216.56a6.4,6.4,0,0,0,1.11-3.47,2.48,2.48,0,0,0-1-2.27l4.26,2.48a2.48,2.48,0,0,1,1,2.27A6.42,6.42,0,0,1,23.23,219Z" fill="#95c4df"/><polygon points="17.02 223.73 12.76 221.26 15.09 219.91 19.36 222.38 17.02 223.73" fill="#95c4df"/><path d="M23.25,205,19,202.49c3.46-2,6-2.54,7.77-1.64L31,203.32C29.3,202.43,26.71,203,23.25,205Z" fill="#95c4df"/><path d="M31,203.32q2.6,1.35,2.61,6.57a19,19,0,0,1-2.79,10,23.27,23.27,0,0,1-8.58,8l-5.22,3,0,13.18-9.58,5.53-.1-35.5L23.25,205C26.71,203,29.3,202.43,31,203.32ZM23.23,219a6.42,6.42,0,0,0,1.11-3.47,2.48,2.48,0,0,0-1-2.27c-.65-.4-1.87-.09-3.65.94L17,215.81l0,7.92,2.33-1.35A11,11,0,0,0,23.23,219" fill="#2580d3"/><polygon points="7.39 214.13 3.13 211.65 18.99 202.49 23.25 204.97 7.39 214.13" fill="#95c4df"/><polygon points="7.49 249.63 3.23 247.16 3.13 211.65 7.39 214.13 7.49 249.63" fill="#95c4df"/></g><g style="isolation:isolate"><polygon points="144.12 162.69 139.86 160.21 156.34 150.7 160.6 153.18 144.12 162.69" fill="#95c4df"/><polygon points="144.08 148.45 139.82 145.98 154.68 137.4 158.94 139.88 144.08 148.45" fill="#95c4df"/><polygon points="160.06 125.98 160.08 133.56 144.06 142.81 144.08 148.45 158.94 139.88 158.96 147.11 144.1 155.69 144.12 162.69 160.6 153.18 160.62 161.22 134.58 176.26 134.48 140.75 160.06 125.98" fill="#2580d3"/><polygon points="134.58 176.26 130.32 173.78 130.22 138.27 134.48 140.75 134.58 176.26" fill="#95c4df"/><polygon points="134.48 140.75 130.22 138.27 155.8 123.5 160.06 125.98 134.48 140.75" fill="#95c4df"/></g><g style="isolation:isolate"><polygon points="268.12 99.16 263.86 96.68 263.78 69.95 268.04 72.42 268.12 99.16" fill="#95c4df"/><polygon points="250.49 109.33 246.23 106.86 244.67 101.89 248.93 104.36 250.49 109.33" fill="#95c4df"/><polygon points="240.15 101.74 235.88 99.26 242.67 95.35 246.93 97.82 240.15 101.74" fill="#95c4df"/><polygon points="287.3 52.52 287.33 61.29 277.58 66.91 277.66 93.65 268.12 99.16 268.04 72.42 258.3 78.05 258.28 69.27 287.3 52.52" fill="#2580d3"/><polygon points="258.28 69.27 254.02 66.8 283.04 50.04 287.3 52.52 258.28 69.27" fill="#95c4df"/><polygon points="258.3 78.05 254.04 75.57 254.02 66.8 258.28 69.27 258.3 78.05" fill="#95c4df"/><polygon points="246.93 97.82 242.67 95.35 239.22 84.56 243.48 87.04 246.93 97.82" fill="#95c4df"/><polygon points="238.37 80.77 234.11 78.29 244.52 72.28 248.78 74.75 238.37 80.77" fill="#95c4df"/><path d="M248.78,74.76l11.71,28.8-10,5.77-1.56-5-10.84,6.26-1.49,6.73L226.85,123l11.52-42.21Zm-8.63,27,6.78-3.92L243.48,87l-3.33,14.7" fill="#2580d3"/><polygon points="226.85 122.98 222.59 120.5 234.11 78.29 238.37 80.77 226.85 122.98" fill="#95c4df"/><polygon points="209.28 133.13 205.02 130.65 204.95 103.92 209.21 106.39 209.28 133.13" fill="#95c4df"/><polygon points="228.47 86.48 228.49 95.26 218.75 100.88 218.82 127.62 209.28 133.13 209.21 106.39 199.47 112.02 199.44 103.24 228.47 86.48" fill="#2580d3"/><polygon points="199.44 103.24 195.18 100.77 224.21 84.01 228.47 86.48 199.44 103.24" fill="#95c4df"/><polygon points="199.47 112.02 195.21 109.54 195.18 100.77 199.44 103.24 199.47 112.02" fill="#95c4df"/></g><g style="isolation:isolate"><polygon points="186.37 146.35 182.11 143.88 170.49 131.06 174.75 133.53 186.37 146.35" fill="#95c4df"/><polygon points="186.33 130.49 182.07 128.02 182.01 108.37 186.27 110.85 186.33 130.49" fill="#95c4df"/><polygon points="186.27 110.85 182.01 108.37 191.01 103.17 195.27 105.65 186.27 110.85" fill="#95c4df"/><polygon points="195.27 105.65 195.37 141.16 186.37 146.35 174.75 133.53 174.81 153.03 165.83 158.21 165.73 122.7 174.64 117.56 186.33 130.49 186.27 110.85 195.27 105.65" fill="#2580d3"/><polygon points="165.83 158.21 161.57 155.74 161.47 120.23 165.73 122.7 165.83 158.21" fill="#95c4df"/><polygon points="165.73 122.7 161.47 120.23 170.38 115.09 174.64 117.56 165.73 122.7" fill="#95c4df"/></g><g style="isolation:isolate"><polygon points="301.57 44.28 301.67 79.79 292.1 85.31 292 49.8 301.57 44.28" fill="#2580d3"/><polygon points="292.1 85.31 287.84 82.83 287.74 47.33 292 49.8 292.1 85.31" fill="#95c4df"/><polygon points="292 49.8 287.74 47.33 297.31 41.8 301.57 44.28 292 49.8" fill="#95c4df"/></g><g style="isolation:isolate"><path d="M318.88,60.26l-4.26-2.48c1.13.66,2.61.47,4.43-.59a11.93,11.93,0,0,0,4.75-5l4.26,2.47a12,12,0,0,1-4.75,5.05Q320.58,61.25,318.88,60.26Z" fill="#95c4df"/><path d="M311.59,69.94l-4.26-2.48a7.16,7.16,0,0,1-2.17-2c-1.43-1.95-2.14-5-2.15-9.14A31.26,31.26,0,0,1,318.9,28.73q7.71-4.45,11.9-2.1l4.27,2.48q-4.2-2.36-11.91,2.1a31.23,31.23,0,0,0-15.89,27.58c0,4.15.72,7.2,2.15,9.15A7.29,7.29,0,0,0,311.59,69.94Z" fill="#95c4df"/><path d="M330.89,26.68l4.26,2.47-.08,0-4.27-2.48Z" fill="#95c4df"/><path d="M323.43,36.43l4.26,2.48.26.17q1.77,1.31,1.78,6.31c0,4-.54,7-1.67,9.23l-4.26-2.47c1.12-2.19,1.68-5.26,1.67-9.24q0-5-1.78-6.31Z" fill="#95c4df"/><path d="M335.07,29.11c2.78,1.56,4.19,5.2,4.2,10.91a32.77,32.77,0,0,1-1.79,11.26,31.2,31.2,0,0,1-5.25,9.24,30.88,30.88,0,0,1-8.58,7.18q-5.23,3-8.65,3.08a6.47,6.47,0,0,1-5.58-2.84c-1.43-2-2.14-5-2.15-9.15a31.23,31.23,0,0,1,15.89-27.58Q330.89,26.75,335.07,29.11Zm-7,25.51c1.13-2.18,1.68-5.26,1.67-9.23q0-5-1.78-6.31c-1.18-.87-2.77-.71-4.79.45a12,12,0,0,0-4.62,5,19,19,0,0,0-1.73,8.79q0,5.37,1.76,6.71t4.74-.38a12,12,0,0,0,4.75-5.05" fill="#2580d3"/></g><g style="isolation:isolate"><polygon points="365.07 43.18 360.81 40.7 349.19 27.88 353.45 30.36 365.07 43.18" fill="#95c4df"/><polygon points="365.03 27.32 360.77 24.84 360.71 5.2 364.97 7.67 365.03 27.32" fill="#95c4df"/><polygon points="364.97 7.67 360.71 5.2 369.71 0 373.97 2.48 364.97 7.67" fill="#95c4df"/><polygon points="373.97 2.48 374.07 37.98 365.07 43.18 353.45 30.36 353.51 49.85 344.53 55.04 344.43 19.53 353.34 14.39 365.03 27.32 364.97 7.67 373.97 2.48" fill="#2580d3"/><polygon points="344.53 55.04 340.27 52.56 340.17 17.06 344.43 19.53 344.53 55.04" fill="#95c4df"/><polygon points="344.43 19.53 340.17 17.06 349.08 11.91 353.34 14.39 344.43 19.53" fill="#95c4df"/></g><g style="isolation:isolate"><polygon points="28.3 297.22 24.04 294.74 12.42 281.93 16.68 284.4 28.3 297.22" fill="#95c4df"/><polygon points="28.26 281.36 24 278.88 23.94 259.24 28.2 261.71 28.26 281.36" fill="#95c4df"/><polygon points="28.2 261.71 23.94 259.24 32.94 254.04 37.2 256.52 28.2 261.71" fill="#95c4df"/><polygon points="37.2 256.52 37.3 292.02 28.3 297.22 16.68 284.4 16.73 303.9 7.75 309.08 7.66 273.58 16.57 268.43 28.26 281.36 28.2 261.71 37.2 256.52" fill="#d5e7f2"/><polygon points="7.75 309.08 3.5 306.61 3.39 271.1 7.66 273.58 7.75 309.08" fill="#95c4df"/><polygon points="7.66 273.58 3.39 271.1 12.31 265.95 16.57 268.43 7.66 273.58" fill="#95c4df"/></g><g style="isolation:isolate"><polygon points="53.49 247.11 53.59 282.62 44.02 288.15 43.92 252.64 53.49 247.11" fill="#d5e7f2"/><polygon points="44.02 288.15 39.76 285.67 39.66 250.16 43.92 252.64 44.02 288.15" fill="#95c4df"/><polygon points="43.92 252.64 39.66 250.16 49.23 244.64 53.49 247.11 43.92 252.64" fill="#95c4df"/></g></svg>