<svg xmlns="http://www.w3.org/2000/svg" xmlns:xlink="http://www.w3.org/1999/xlink" viewBox="0 0 456.5 497.45"><defs><linearGradient id="a" x1="160.29" y1="301.02" x2="160.29" y2="4.51" gradientUnits="userSpaceOnUse"><stop offset="0" stop-color="#2580d3"/><stop offset="1" stop-color="#0a208f"/></linearGradient><linearGradient id="b" x1="-3880.48" y1="399.21" x2="-3822.03" y2="399.21" gradientTransform="matrix(-1, 0, 0, 1, -3575.87, 0)" gradientUnits="userSpaceOnUse"><stop offset="0" stop-color="#009dff"/><stop offset="1" stop-color="#0a20cb"/></linearGradient><linearGradient id="c" x1="-3801.3" y1="382.98" x2="-4118.39" y2="475.18" gradientTransform="matrix(-1, 0, 0, 1, -3575.87, 0)" gradientUnits="userSpaceOnUse"><stop offset="0" stop-color="#2898f4"/><stop offset="0.15" stop-color="#2690f1"/><stop offset="0.37" stop-color="#207aea"/><stop offset="0.66" stop-color="#1755de"/><stop offset="0.98" stop-color="#0b23cd"/><stop offset="1" stop-color="#0a20cc"/></linearGradient><linearGradient id="d" x1="-3854.24" y1="380.71" x2="-3848.27" y2="380.71" xlink:href="#b"/><linearGradient id="e" x1="-3852.64" y1="315.38" x2="-3871.38" y2="364.39" xlink:href="#b"/><linearGradient id="f" x1="-3886.55" y1="302.41" x2="-3905.29" y2="351.43" xlink:href="#b"/><linearGradient id="g" x1="-3882.43" y1="297.91" x2="-3820.08" y2="297.91" xlink:href="#b"/><linearGradient id="h" x1="-3883.74" y1="316.52" x2="-3818.77" y2="316.52" xlink:href="#b"/><linearGradient id="i" x1="-3823.87" y1="326.38" x2="-3842.61" y2="375.39" xlink:href="#b"/><linearGradient id="j" x1="-3825.83" y1="325.63" x2="-3844.58" y2="374.64" xlink:href="#b"/><linearGradient id="k" x1="56.84" y1="11.76" x2="64.4" y2="113.2" gradientUnits="userSpaceOnUse"><stop offset="0" stop-color="#ffe71f"/><stop offset="1" stop-color="#ff8602"/></linearGradient><linearGradient id="l" x1="53.02" y1="44.52" x2="43.25" y2="64.06" gradientUnits="userSpaceOnUse"><stop offset="0" stop-color="#fff78c"/><stop offset="1" stop-color="#e76008"/></linearGradient><linearGradient id="m" x1="351.42" y1="63.5" x2="352.51" y2="17.65" gradientUnits="userSpaceOnUse"><stop offset="0" stop-color="#c100ff"/><stop offset="1" stop-color="#6e00ff"/></linearGradient><linearGradient id="n" x1="341.53" y1="45.06" x2="346.04" y2="35.27" gradientUnits="userSpaceOnUse"><stop offset="0" stop-color="#f532ff"/><stop offset="1" stop-color="#a232ff"/></linearGradient><linearGradient id="o" x1="198.91" y1="2.45" x2="206.47" y2="103.89" gradientUnits="userSpaceOnUse"><stop offset="0" stop-color="#a9fb00"/><stop offset="1" stop-color="#12de13"/></linearGradient><linearGradient id="p" x1="195.08" y1="35.21" x2="185.32" y2="54.75" gradientUnits="userSpaceOnUse"><stop offset="0" stop-color="#d9ff89"/><stop offset="1" stop-color="#25ff26"/></linearGradient><linearGradient id="q" x1="-4235.05" y1="123.54" x2="-4209.15" y2="214.21" gradientTransform="matrix(-1, 0, 0, 1, -3835.39, 0)" gradientUnits="userSpaceOnUse"><stop offset="0" stop-color="#00c855"/><stop offset="1" stop-color="#009ec8"/></linearGradient><linearGradient id="r" x1="-4250.25" y1="155.93" x2="-4263.17" y2="174.89" gradientTransform="matrix(-1, 0, 0, 1, -3835.39, 0)" gradientUnits="userSpaceOnUse"><stop offset="0" stop-color="#38f687"/><stop offset="1" stop-color="#76eaff"/></linearGradient><linearGradient id="s" x1="-4251.66" y1="146.19" x2="-4257.29" y2="227.23" xlink:href="#r"/><linearGradient id="t" x1="18.29" y1="120.18" x2="24.05" y2="197.58" gradientUnits="userSpaceOnUse"><stop offset="0" stop-color="#2962ff"/><stop offset="1" stop-color="#29ffee"/></linearGradient><linearGradient id="u" x1="15.37" y1="145.18" x2="7.92" y2="160.09" gradientUnits="userSpaceOnUse"><stop offset="0" stop-color="#6d99fe"/><stop offset="1" stop-color="#98fffe"/></linearGradient></defs><title>graphic</title><g style="isolation:isolate"><path d="M391.23,277.83c87,50.24,87,131.7,0,181.94S163.12,510,76.1,459.77s-87-131.7,0-181.94S304.21,227.58,391.23,277.83Z" fill="#0a208f" opacity="0.3" style="mix-blend-mode:multiply"/><path d="M301.62,9.93c0-4.16-2.95-5.86-6.55-3.78L25.51,161.77A14.55,14.55,0,0,0,19,173.12V384c0,4.16,2.95,5.86,6.55,3.78L295.07,232.1a14.53,14.53,0,0,0,6.55-11.34Z" fill="#eef5f9"/><polygon points="301.62 202.25 301.62 12.44 18.96 175.62 18.96 365.44 301.62 202.25" fill="url(#a)"/><path d="M19,384V173.12a14.55,14.55,0,0,1,6.55-11.35L295.07,6.15c1.78-1,3.4-1.13,4.59-.47h0L290.58.49c-1.2-.74-2.87-.67-4.72.4L16.3,156.51a14.54,14.54,0,0,0-6.54,11.35V378.69c0,2.15.79,3.65,2.05,4.3l9,5.11h0C19.66,387.38,19,386,19,384Z" fill="#95c4df"/><path d="M259.49,341.76l-50.25-22.59a54.62,54.62,0,0,1-24.16-23.56L128.94,328c4.82,16.35,17.1,28,17.1,28s30.83,23.9,39,29.34,16.78.83,16.78.83l57.74-34.68s3.22-1.54,4-3.93l.17-.77C264,343.72,259.49,341.76,259.49,341.76Z" fill="#eef5f9"/><path d="M259.51,351.46l-57.74,34.68s-8.66,4.61-16.78-.83S146,356,146,356s-12.28-11.6-17.1-28l-4.85,2.8c3.24,10.89,10.53,21.47,22.74,30.23,34.7,24.89,38.4,26.91,38.4,26.91s5.91,5.21,16.68,0,58-34.37,58-34.37,3.91-2.12,3.91-4.17l-.14-3C263.77,349.42,259.51,351.46,259.51,351.46Z" fill="#95c4df"/><path d="M185.08,295.61,128.94,328c3,10.16,8.87,18.49,12.89,23.33l61.54-35.53A55.31,55.31,0,0,1,185.08,295.61Z" fill="#a9d0e5"/><path d="M188.1,224.27a12.81,12.81,0,0,1-5.78,10L15.5,330.6c-3.18,1.83-5.78.33-5.78-3.34V202.63a12.84,12.84,0,0,1,5.78-10L182.31,96.3c3.18-1.83,5.79-.33,5.79,3.34Z" fill="#0a208f" opacity="0.3" style="mix-blend-mode:multiply"/><path d="M205.66,234.68a12.84,12.84,0,0,1-5.78,10L33.07,341c-3.18,1.84-5.79.34-5.79-3.34V213a12.79,12.79,0,0,1,5.79-10l166.81-96.31c3.18-1.84,5.78-.33,5.78,3.34Z" fill="#eef5f9"/><path d="M199.88,106.71,33.07,203a12.79,12.79,0,0,0-5.79,10v4.88l178.38-103v-4.88C205.66,106.38,203.06,104.87,199.88,106.71Z" fill="#2580d3"/><path d="M200.63,112.27c0-1.51-1.06-2.12-2.37-1.36a5.24,5.24,0,0,0-2.36,4.1c0,1.51,1.06,2.12,2.36,1.37A5.25,5.25,0,0,0,200.63,112.27Z" fill="#eef5f9"/><path d="M192.57,116.93c0-1.51-1.06-2.12-2.37-1.37a5.22,5.22,0,0,0-2.36,4.1c0,1.51,1,2.12,2.36,1.37A5.22,5.22,0,0,0,192.57,116.93Z" fill="#eef5f9"/><path d="M184.51,121.58c0-1.51-1.06-2.12-2.37-1.36a5.22,5.22,0,0,0-2.37,4.1c0,1.51,1.06,2.12,2.37,1.36A5.22,5.22,0,0,0,184.51,121.58Z" fill="#eef5f9"/><path d="M254.72,385.58c11.41-6.59,29.92-6.59,41.33,0,5.71,3.29,8.56,7.61,8.56,11.93v3.41c0,4.32-2.85,8.64-8.56,11.93-11.41,6.59-29.92,6.59-41.33,0-5.7-3.29-8.56-7.61-8.56-11.93v-3.41C246.16,393.19,249,388.87,254.72,385.58Z" fill="url(#b)"/><path d="M254.72,385.58c-11.41,6.59-11.41,17.27,0,23.86s29.92,6.59,41.33,0,11.41-17.27,0-23.86S266.13,379,254.72,385.58Z" fill="url(#c)"/><path d="M273.27,362.71a4.68,4.68,0,0,1,4.22,0,1.48,1.48,0,0,1,.88,1.22v33.56a1.48,1.48,0,0,1-.88,1.22,4.68,4.68,0,0,1-4.22,0,1.49,1.49,0,0,1-.87-1.22V363.93A1.49,1.49,0,0,1,273.27,362.71Z" fill="url(#d)"/><path d="M252.71,328.65l0,18.36c.05,17.54,12.46,24.61,27.72,15.8s27.6-30.18,27.55-47.71l0-18.36,1.91-1.1L310,314c.05,18.73-13.17,41.61-29.46,51s-29.59,1.83-29.65-16.9l-.05-18.35Z" fill="url(#e)"/><path d="M300.11,282.47l2.51-1.46c1.08-.62,2.57-.53,4.21.42a13.23,13.23,0,0,1,6,10.37c0,1.92-.68,3.26-1.78,3.88l-2.51,1.47c-1.08.61-2.57.52-4.21-.43a13.24,13.24,0,0,1-6-10.36C298.34,284.44,299,283.09,300.11,282.47Z" fill="url(#f)"/><path d="M273.77,358.9c15.26-8.81,27.59-30.17,27.54-47.71l0-17.21a13.07,13.07,0,0,1-2.93-7.62c0-1.92.67-3.27,1.77-3.89s2.57-.52,4.21.43a13.22,13.22,0,0,1,6,10.36c0,1.92-.68,3.27-1.78,3.89a2.66,2.66,0,0,1-.55.23l0,17.72c.05,17.53-12.28,38.89-27.55,47.71-7.68,4.43-14.64,4.84-19.66,1.92l-6.72-3.9C259.13,363.75,266.09,363.34,273.77,358.9Z" fill="#0a22cc"/><polygon points="252.71 321.45 245.99 317.55 244.08 318.65 250.79 322.56 252.71 321.45" fill="#517e2d"/><path d="M275.39,241.54a31.18,31.18,0,0,1,31.17,31.18v50.37a31.18,31.18,0,1,1-62.35,0V272.72A31.18,31.18,0,0,1,275.39,241.54Z" fill="url(#g)"/><path d="M301.74,285.77c3-3,4.69-6.19,4.69-9.49,0-1.86,0-3.12,0-3.91a13.63,13.63,0,0,1-5,8.4,4.52,4.52,0,0,0-1.69,3.71C299.86,285.49,300.53,287,301.74,285.77Z" fill="#000450"/><path d="M291.68,286.22c1.51-.49,2.3.37,2.3,1.83a3.86,3.86,0,0,1-2.3,3.49c-11.78,4.17-27.46,3.44-37.9-2.38-6.38-3.56-9.58-8.31-9.57-13.06l.13-5.36c0,4.75,3.19,9.5,9.57,13.05C264.29,289.58,279.93,290.32,291.68,286.22Z" fill="#000450"/><path d="M301.74,296.71c3-3,4.69-6.19,4.69-9.48,0-1.87,0-3.12,0-3.91a13.61,13.61,0,0,1-5,8.39,4.53,4.53,0,0,0-1.69,3.71C299.86,296.43,300.53,297.92,301.74,296.71Z" fill="#000450"/><path d="M291.68,297.17c1.51-.5,2.3.36,2.3,1.83a3.86,3.86,0,0,1-2.3,3.48c-11.78,4.18-27.46,3.44-37.9-2.38-6.38-3.56-9.58-8.31-9.57-13.06l.13-5.36c0,4.75,3.19,9.5,9.57,13.06C264.29,300.53,279.93,301.26,291.68,297.17Z" fill="#000450"/><path d="M301.74,307.65c3-3,4.69-6.19,4.69-9.48,0-1.87,0-3.12,0-3.91a13.61,13.61,0,0,1-5,8.39,4.54,4.54,0,0,0-1.69,3.72C299.86,307.37,300.53,308.86,301.74,307.65Z" fill="#000450"/><path d="M291.68,308.11c1.51-.5,2.3.36,2.3,1.83a3.87,3.87,0,0,1-2.3,3.49c-11.78,4.17-27.46,3.43-37.9-2.39-6.38-3.56-9.58-8.31-9.57-13.05l.13-5.37c0,4.75,3.19,9.5,9.57,13.06C264.29,311.47,279.93,312.21,291.68,308.11Z" fill="#000450"/><path d="M252.41,321.58c12.69,7.33,33.26,7.33,46,0,4-2.31,6.73-5.07,8.2-8v2.79c-1.47,2.93-4.21,5.69-8.2,8-12.69,7.32-33.26,7.32-46,0a20.22,20.22,0,0,1-8.2-8V313.6A20.14,20.14,0,0,0,252.41,321.58Z" opacity="0.2" style="mix-blend-mode:multiply"/><path d="M242.91,304.68c.07,4.74,3.24,9.47,9.5,13.09,12.69,7.32,33.26,7.32,46,0,6.05-3.5,9.21-8,9.48-12.62h0l0,4.77c-.15,4.69-3.32,9.35-9.51,12.93-12.69,7.33-33.26,7.33-46,0-6.34-3.66-9.51-8.46-9.51-13.26v-4.92Z" fill="url(#h)"/><path d="M244.21,299.23v6l.26,1.1c.71,4,3.69,7.82,8.95,10.86,12.16,7,31.88,7,44,0,5.74-3.32,8.77-7.61,9.08-12h0v-.45c0-.2,0-.41,0-.61v-5c3.22,6.36.49,13.52-8.2,18.54-12.69,7.32-33.26,7.32-46,0C243.72,312.75,241,305.59,244.21,299.23Z" fill="#258cf0"/><path d="M252.76,347c0,13.7,7.63,21,18.22,19.35v2.32c-11.65,2.17-20.09-5.66-20.14-20.57l-.05-18.35,1.92-1.11Z" fill="url(#i)"/><path d="M243.12,315.43l2.51-1.46c1.08-.62,2.57-.53,4.22.42a13.24,13.24,0,0,1,6,10.37c0,1.92-.68,3.26-1.77,3.88l-2.51,1.47c-1.09.61-2.57.52-4.22-.43a13.24,13.24,0,0,1-6-10.36C241.35,317.4,242,316.05,243.12,315.43Z" fill="url(#j)"/><path d="M241.35,319.32c0-1.92.68-3.27,1.77-3.89s2.57-.52,4.21.43a13.23,13.23,0,0,1,6,10.37c0,1.92-.68,3.26-1.77,3.88a3.32,3.32,0,0,1-.76.29l.05,17.71c0,9.3,3.33,15.86,8.63,18.94l-6.71-3.9c-5.31-3.09-8.6-9.64-8.63-18.94l0-17.53A12.94,12.94,0,0,1,241.35,319.32Z" fill="#083ed7"/><path d="M244.13,320.92a7.08,7.08,0,0,0,3.2,5.55,2.26,2.26,0,0,0,2.26.23,2.23,2.23,0,0,0,.95-2.08,7.09,7.09,0,0,0-3.21-5.55,2,2,0,0,0-3.2,1.85Z" fill="#000450"/><polygon points="39.9 284.46 38.69 285.16 38.69 277.31 39.9 276.62 39.9 284.46" fill="#4387df"/><polygon points="41.8 283.36 40.6 284.06 40.6 276.21 41.8 275.52 41.8 283.36" fill="#4387df"/><polygon points="43.71 282.26 42.5 282.96 42.5 275.12 43.71 274.42 43.71 282.26" fill="#4387df"/><polygon points="45.61 288.41 44.4 289.11 44.4 266.77 45.61 266.08 45.61 288.41" fill="#4387df"/><polygon points="47.51 287.31 46.31 288.01 46.31 265.67 47.51 264.98 47.51 287.31" fill="#4387df"/><polygon points="49.42 286.21 48.21 286.91 48.21 264.57 49.42 263.88 49.42 286.21" fill="#4387df"/><polygon points="51.32 290.13 50.11 290.83 50.11 258.46 51.32 257.76 51.32 290.13" fill="#4387df"/><polygon points="53.22 289.03 52.02 289.73 52.02 257.36 53.22 256.67 53.22 289.03" fill="#4387df"/><polygon points="55.13 298.94 53.92 299.64 53.92 245.25 55.13 244.55 55.13 298.94" fill="#4387df"/><polygon points="57.03 291.3 55.83 292 55.82 250.7 57.03 250 57.03 291.3" fill="#4387df"/><polygon points="58.93 282.46 57.73 283.15 57.73 257.34 58.93 256.64 58.93 282.46" fill="#4387df"/><polygon points="60.84 277.03 59.63 277.73 59.63 260.57 60.84 259.87 60.84 277.03" fill="#4387df"/><polygon points="62.74 274.07 61.54 274.76 61.54 261.34 62.74 260.64 62.74 274.07" fill="#4387df"/><polygon points="64.64 272.97 63.44 273.67 63.44 260.24 64.64 259.54 64.64 272.97" fill="#4387df"/><polygon points="66.55 271.87 65.34 272.57 65.34 259.14 66.55 258.44 66.55 271.87" fill="#4387df"/><polygon points="68.45 270.77 67.25 271.47 67.25 258.04 68.45 257.34 68.45 270.77" fill="#4387df"/><polygon points="70.36 275.64 69.15 276.34 69.15 250.97 70.36 250.27 70.36 275.64" fill="#4387df"/><polygon points="72.26 274.55 71.05 275.24 71.05 249.87 72.26 249.17 72.26 274.55" fill="#4387df"/><polygon points="74.16 276.59 72.96 277.29 72.96 245.62 74.16 244.93 74.16 276.59" fill="#4387df"/><polygon points="76.07 275.49 74.86 276.19 74.86 244.52 76.07 243.83 76.07 275.49" fill="#4387df"/><polygon points="77.97 284.27 76.76 284.96 76.76 233.55 77.97 232.85 77.97 284.27" fill="#4387df"/><polygon points="79.87 283.17 78.67 283.87 78.67 232.45 79.87 231.75 79.87 283.17" fill="#4387df"/><polygon points="81.78 286.11 80.57 286.81 80.57 227.31 81.78 226.61 81.78 286.11" fill="#4387df"/><polygon points="83.68 269.02 82.47 269.72 82.47 242.2 83.68 241.5 83.68 269.02" fill="#4387df"/><polygon points="85.58 267.93 84.38 268.62 84.38 241.1 85.58 240.4 85.58 267.93" fill="#4387df"/><polygon points="87.49 264.4 86.28 265.1 86.28 242.42 87.49 241.72 87.49 264.4" fill="#4387df"/><polygon points="89.39 263.31 88.18 264 88.18 241.32 89.39 240.63 89.39 263.31" fill="#4387df"/><polygon points="91.29 258.22 90.09 258.91 90.09 244.22 91.29 243.52 91.29 258.22" fill="#4387df"/><polygon points="93.19 257.12 91.99 257.81 91.99 243.12 93.19 242.42 93.19 257.12" fill="#4387df"/><polygon points="95.1 262.74 93.89 263.44 93.89 235.29 95.1 234.59 95.1 262.74" fill="#4387df"/><polygon points="97 261.65 95.8 262.34 95.8 234.19 97 233.5 97 261.65" fill="#4387df"/><polygon points="98.91 260.55 97.7 261.24 97.7 233.09 98.91 232.4 98.91 260.55" fill="#4387df"/><polygon points="100.81 263.46 99.61 264.15 99.61 227.98 100.81 227.28 100.81 263.46" fill="#4387df"/><polygon points="102.71 262.36 101.51 263.06 101.51 226.88 102.71 226.19 102.71 262.36" fill="#4387df"/><polygon points="104.62 268.23 103.41 268.93 103.41 218.81 104.62 218.12 104.62 268.23" fill="#4387df"/><polygon points="106.52 267.13 105.32 267.83 105.31 217.72 106.52 217.02 106.52 267.13" fill="#4387df"/><polygon points="108.42 266.04 107.22 266.73 107.22 216.62 108.42 215.92 108.42 266.04" fill="#4387df"/><polygon points="110.33 258.36 109.12 259.06 109.12 222.09 110.33 221.39 110.33 258.36" fill="#4387df"/><polygon points="112.23 257.26 111.03 257.96 111.03 220.99 112.23 220.29 112.23 257.26" fill="#4387df"/><polygon points="114.13 248.55 112.93 249.24 112.93 227.51 114.13 226.82 114.13 248.55" fill="#4387df"/><polygon points="116.04 247.45 114.83 248.14 114.83 226.41 116.04 225.72 116.04 247.45" fill="#4387df"/><polygon points="117.94 242.81 116.74 243.51 116.74 228.84 117.94 228.15 117.94 242.81" fill="#4387df"/><polygon points="119.84 241.72 118.64 242.41 118.64 227.75 119.85 227.05 119.84 241.72" fill="#4387df"/><polygon points="121.75 237.21 120.54 237.9 120.54 230.06 121.75 229.36 121.75 237.21" fill="#4387df"/><polygon points="123.65 236.11 122.44 236.81 122.44 228.96 123.65 228.26 123.65 236.11" fill="#4387df"/><polygon points="125.56 235.01 124.35 235.71 124.35 227.86 125.56 227.16 125.56 235.01" fill="#4387df"/><polygon points="127.46 233.91 126.25 234.61 126.25 226.76 127.46 226.07 127.46 233.91" fill="#4387df"/><polygon points="129.36 236.62 128.16 237.31 128.16 221.86 129.37 221.16 129.36 236.62" fill="#4387df"/><polygon points="131.27 235.52 130.06 236.21 130.06 220.76 131.27 220.07 131.27 235.52" fill="#4387df"/><polygon points="133.17 237.1 131.96 237.8 131.96 216.98 133.17 216.28 133.17 237.1" fill="#4387df"/><polygon points="135.07 236 133.87 236.7 133.87 215.88 135.07 215.18 135.07 236" fill="#4387df"/><polygon points="136.98 238.62 135.77 239.32 135.77 211.06 136.98 210.36 136.98 238.62" fill="#4387df"/><polygon points="138.88 237.52 137.68 238.22 137.68 209.96 138.88 209.26 138.88 237.52" fill="#4387df"/><polygon points="140.78 236.42 139.58 237.12 139.58 208.86 140.78 208.16 140.78 236.42" fill="#4387df"/><polygon points="142.69 245.38 141.48 246.07 141.48 197.71 142.69 197.01 142.69 245.38" fill="#4387df"/><polygon points="144.59 244.28 143.39 244.98 143.39 196.61 144.59 195.91 144.59 244.28" fill="#4387df"/><polygon points="146.5 243.18 145.29 243.88 145.29 195.51 146.49 194.82 146.5 243.18" fill="#4387df"/><polygon points="148.4 253.91 147.19 254.6 147.19 182.59 148.4 181.89 148.4 253.91" fill="#4387df"/><polygon points="150.3 252.81 149.1 253.5 149.1 181.49 150.3 180.8 150.3 252.81" fill="#4387df"/><polygon points="152.21 244.73 151 245.43 151 187.38 152.2 186.68 152.21 244.73" fill="#4387df"/><polygon points="154.11 243.63 152.9 244.32 152.9 186.28 154.11 185.58 154.11 243.63" fill="#4387df"/><polygon points="156.01 256.57 154.81 257.27 154.81 171.13 156.01 170.44 156.01 256.57" fill="#4387df"/><polygon points="157.92 244.67 156.71 245.36 156.71 180.83 157.91 180.14 157.92 244.67" fill="#4387df"/><polygon points="159.82 243.57 158.61 244.27 158.61 179.74 159.82 179.04 159.82 243.57" fill="#4387df"/><polygon points="161.72 242.47 160.52 243.17 160.52 178.63 161.72 177.94 161.72 242.47" fill="#4387df"/><polygon points="163.63 234.18 162.42 234.87 162.42 184.73 163.63 184.04 163.63 234.18" fill="#4387df"/><polygon points="165.53 233.08 164.32 233.77 164.32 183.63 165.53 182.94 165.53 233.08" fill="#4387df"/><polygon points="167.43 223.92 166.23 224.62 166.23 190.59 167.43 189.9 167.43 223.92" fill="#4387df"/><polygon points="169.34 222.82 168.13 223.52 168.13 189.49 169.34 188.8 169.34 222.82" fill="#4387df"/><polygon points="171.24 221.73 170.03 222.42 170.03 188.39 171.24 187.7 171.24 221.73" fill="#4387df"/><polygon points="173.14 214.46 171.94 215.16 171.94 193.46 173.14 192.76 173.14 214.46" fill="#4387df"/><polygon points="175.05 213.36 173.84 214.06 173.84 192.36 175.05 191.67 175.05 213.36" fill="#4387df"/><polygon points="176.95 208.58 175.74 209.28 175.74 194.95 176.95 194.25 176.95 208.58" fill="#4387df"/><polygon points="178.85 207.48 177.65 208.18 177.65 193.85 178.85 193.15 178.85 207.48" fill="#4387df"/><polygon points="180.76 203.14 179.55 203.84 179.55 195.99 180.76 195.29 180.76 203.14" fill="#4387df"/><polygon points="182.66 202.04 181.46 202.74 181.46 194.89 182.66 194.2 182.66 202.04" fill="#4387df"/><polygon points="184.57 205.84 183.36 206.54 183.36 188.89 184.57 188.19 184.57 205.84" fill="#4387df"/><polygon points="186.47 204.75 185.26 205.44 185.26 187.79 186.47 187.09 186.47 204.75" fill="#4387df"/><polygon points="188.37 223.04 187.17 223.74 187.16 167.3 188.37 166.6 188.37 223.04" fill="#4387df"/><polygon points="190.28 217.47 189.07 218.17 189.07 170.67 190.28 169.97 190.28 217.47" fill="#4387df"/><polygon points="192.18 210.23 190.97 210.93 190.97 175.71 192.18 175.02 192.18 210.23" fill="#4387df"/><polygon points="194.08 202.95 192.88 203.65 192.88 180.79 194.08 180.09 194.08 202.95" fill="#4387df"/><polygon points="195.99 194.35 194.78 195.04 194.78 187.2 195.99 186.5 195.99 194.35" fill="#4387df"/><polygon points="197.89 193.25 196.68 193.94 196.68 186.1 197.89 185.41 197.89 193.25" fill="#4387df"/><polygon points="199.79 192.15 198.59 192.85 198.59 185 199.79 184.31 199.79 192.15" fill="#4387df"/><polygon points="223.56 168.23 223.56 174.62 223.56 175.52 223.56 175.6 223.56 181.57 223.56 218.81 285.8 180.64 285.84 143.29 285.86 143.28 285.86 137.31 285.86 130.03 223.56 168.23" fill="#0a208f" opacity="0.3" style="mix-blend-mode:multiply"/><polygon points="274.52 57.81 212.22 96.02 212.22 102.4 212.22 102.4 212.22 146.59 214.37 145.28 214.37 145.28 274.46 108.42 274.51 65.1 274.52 65.09 274.52 57.81" fill="#0a208f" opacity="0.3" style="mix-blend-mode:multiply"/><polygon points="230.98 173.76 230.98 224.34 293.22 186.17 293.28 135.55 230.98 173.76" fill="#eee"/><polygon points="230.98 181.05 230.98 187.1 293.28 148.81 293.28 142.84 230.98 181.05" fill="#636363"/><polygon points="230.98 180.15 233.18 178.8 233.13 223.03 230.98 224.34 230.98 180.15" fill="#c5c5c5"/><polygon points="230.98 173.76 230.98 181.13 293.28 142.84 293.28 135.55 230.98 173.76" fill="#d4d4d4"/><path d="M231.92,193.08h0a2.31,2.31,0,0,0,.83-1.46v-5.68c0-.37-.2-.47-.51-.28h0a2.34,2.34,0,0,0-.83,1.47v5.68C231.41,193.17,231.6,193.28,231.92,193.08Z" fill="#83a7e3"/><path d="M290.35,141.46c0-.79-.57-1.08-1.26-.65a2.89,2.89,0,0,0-1.27,2.21c0,.79.57,1.08,1.27.65A2.9,2.9,0,0,0,290.35,141.46Z" fill="#cc512c"/><path d="M286.73,143.71c0-.8-.56-1.09-1.26-.66a2.89,2.89,0,0,0-1.26,2.21c0,.79.56,1.09,1.26.66A2.89,2.89,0,0,0,286.73,143.71Z" fill="#efb12c"/><path d="M283.11,146c0-.79-.56-1.09-1.26-.66a2.89,2.89,0,0,0-1.26,2.22c0,.79.56,1.08,1.26.65A2.89,2.89,0,0,0,283.11,146Z" fill="#52c92c"/><polygon points="282.08 153.46 291.04 147.94 291.04 146.39 282.08 151.91 282.08 153.46" fill="#b1b1b1"/><polygon points="244.4 176.72 246.25 175.58 246.25 174.12 244.4 175.26 244.4 176.72" fill="#b1b1b1"/><polygon points="240.4 179.18 242.25 178.04 242.25 176.58 240.4 177.72 240.4 179.18" fill="#b1b1b1"/><polygon points="236.39 181.63 238.24 180.49 238.24 179.03 236.39 180.17 236.39 181.63" fill="#b1b1b1"/><polygon points="276.39 148.29 276.39 149.36 246.54 167.7 246.54 166.63 276.39 148.29" fill="#b1b1b1"/><polygon points="269.17 177.29 272.54 179.6 276.35 172.86 272.54 171.34 269.17 177.29" fill="#efb12c"/><polygon points="262.87 181.13 266.24 183.45 270.05 176.71 266.24 175.19 262.87 181.13" fill="#ef682c"/><polygon points="256.58 184.98 259.94 187.3 263.76 180.56 259.94 179.04 256.58 184.98" fill="#77b12c"/><polygon points="250.28 188.83 253.65 191.15 257.46 184.4 253.65 182.88 250.28 188.83" fill="#867cca"/><path d="M275.62,186.25l-.27.17-24.52,15.11v-4.62l.26-.17,24.52-15.11Zm-24.44,14.66,24.08-14.85v-3.81L251.18,197.1Z" fill="#a6a6a6"/><polygon points="242.83 201.85 248.96 198.07 248.96 202.79 242.83 206.57 242.83 201.85" fill="#65a1ff"/><polygon points="273.42 183.85 273.99 183.5 273.99 186.55 273.42 186.9 273.42 183.85" fill="#454545"/><polygon points="219.65 101.54 219.65 152.12 281.88 113.95 281.94 63.34 219.65 101.54" fill="#eee"/><polygon points="219.65 108.83 219.65 114.89 281.94 76.59 281.94 70.62 219.65 108.83" fill="#40659a"/><polygon points="219.64 107.93 221.84 106.59 221.79 150.81 219.64 152.13 219.64 107.93" fill="#c5c5c5"/><polygon points="219.65 101.54 219.65 108.92 281.94 70.62 281.94 63.34 219.65 101.54" fill="#d4d4d4"/><path d="M220.58,120.87h0a2.36,2.36,0,0,0,.83-1.47v-5.68c0-.36-.19-.47-.51-.28h0a2.34,2.34,0,0,0-.83,1.47v5.68C220.07,121,220.27,121.06,220.58,120.87Z" fill="#83a7e3"/><path d="M279,69.24c0-.79-.56-1.08-1.26-.65a2.89,2.89,0,0,0-1.26,2.21c0,.79.56,1.09,1.26.66A2.89,2.89,0,0,0,279,69.24Z" fill="#cc512c"/><path d="M275.39,71.49c0-.79-.56-1.09-1.26-.66A2.89,2.89,0,0,0,272.87,73c0,.8.56,1.09,1.26.66A2.89,2.89,0,0,0,275.39,71.49Z" fill="#efb12c"/><path d="M271.78,73.73c0-.79-.57-1.08-1.27-.65a2.92,2.92,0,0,0-1.26,2.21c0,.79.57,1.09,1.26.66A2.94,2.94,0,0,0,271.78,73.73Z" fill="#52c92c"/><polygon points="261.57 94.35 261.57 113.77 265.22 111.52 273.4 106.5 274.95 105.54 274.96 105.54 278.61 103.29 278.61 83.87 261.57 94.35" fill="#4c869d"/><polygon points="267.47 104.73 268.37 103.33 270.94 100.79 272.36 100.38 269.07 108.27 267.47 104.73" fill="#304870"/><polygon points="257.41 110.73 257.41 109.65 227.57 127.99 227.57 129.07 257.41 110.73" fill="#868686"/><polygon points="257.41 104.99 257.41 103.92 227.57 122.26 227.57 123.33 257.41 104.99" fill="#868686"/><polygon points="257.41 115.39 227.57 133.72 227.57 134.8 257.41 116.46 257.41 115.39" fill="#868686"/><polygon points="270.74 81.24 279.7 75.72 279.7 74.17 270.74 79.7 270.74 81.24" fill="#fff"/><polygon points="241.08 99.59 242.93 98.45 242.93 96.99 241.08 98.13 241.08 99.59" fill="#fff"/><polygon points="237.07 102.05 238.93 100.91 238.93 99.45 237.07 100.59 237.07 102.05" fill="#fff"/><polygon points="233.06 104.5 234.92 103.36 234.92 101.9 233.06 103.04 233.06 104.5" fill="#fff"/><polygon points="229.06 106.96 230.91 105.82 230.91 104.36 229.06 105.5 229.06 106.96" fill="#fff"/><polygon points="225.05 109.41 226.91 108.27 226.91 106.81 225.05 107.95 225.05 109.41" fill="#fff"/><path d="M265.22,111.52l8.18-5,1.55-1-.08-5.27-2-1.24c-.16.12-.35.19-.51.33s-.4.35-.6.54c.19,0,.23.29,0,.76l-.28.76-.07.18L269.07,108s-1.35-2.54-1.3-3.58h0l.22-.53-.59.72a12.3,12.3,0,0,0-1,1.48c-.1.16-.19.32-.28.49a.47.47,0,0,1-.05.1c-.06.12-.12.25-.18.36a.39.39,0,0,1,0,.09,3.1,3.1,0,0,0-.13.4,8,8,0,0,0-.38,1.18s0,0,0,0a3.78,3.78,0,0,0-.11.89Z" fill="#304870"/><path d="M265.86,107.09a2.61,2.61,0,0,0,.18-.29,11.62,11.62,0,0,1,1.25-1.86c.15-.18.31-.37.48-.55a6.89,6.89,0,0,1,.51-.55c.17-.17.34-.28.51-.43l.12-.09a7.31,7.31,0,0,1,.6-.54c.33-.25.64-.44,1-.68l.15-.11.07,0a4.93,4.93,0,0,1,.81-.52l.08,0a3.14,3.14,0,0,1,.44-.18c.85-.26,1.28,1.18,1.3,2.28l.08,3,1.55-1v.08h0v-.08l-.09-5.27s-.25-2.3-2-1.24a13.42,13.42,0,0,0-1.43.91,7.93,7.93,0,0,0-.67.54l-.13.11-.1.1a.71.71,0,0,0-.13.12c-.41.38-.84.79-1.26,1.23l0,0-.31.32a4.58,4.58,0,0,0-.42.46c-.1.12-.15.23-.24.36a1.66,1.66,0,0,1-.16.21l-.16.2a22.58,22.58,0,0,0-1.39,2.34c-.07.14-.38.79-.51,1A.39.39,0,0,1,265.86,107.09Z" fill="#27274d"/><path d="M271.39,98.34l0,1.83a5.94,5.94,0,0,1-.89,2,7.74,7.74,0,0,1-1.5,1.71c-.23.15-.23.1-.23.1l0-1.81Z" fill="#deb08a"/><path d="M268.77,102.12v.42l1.72-2.49,0,1.83s0,.16-.12.41l.12-.17a5.94,5.94,0,0,0,.89-2l0-1.83Z" fill="#d18d6d"/><path d="M271.7,98.41h0c-.32.72-.67,1.44-1.05,2.12-2,3.65-3.18,3.25-3.42,2.07a9.76,9.76,0,0,1-.24-3.33,6,6,0,0,1,1.18-1.53c1.72-1.67,2.59-2.54,2.58-1.47s0,1.74,0,1.74l.44-.53s.54-2.62,1.06-2.75C273.44,94.42,271.65,96.78,271.7,98.41Z" fill="#f1be8f"/><path d="M270.75,96.27a2.5,2.5,0,0,1,.06-.51c0-.16,0-.29,0-.33s-.16,0-.27.1-.23.2-.35.29a2.58,2.58,0,0,1-.31.22.18.18,0,0,1-.16,0,.67.67,0,0,0-.4.06,3.27,3.27,0,0,0-1,.83,4.9,4.9,0,0,0-.63.86,5.75,5.75,0,0,0-.38.74,2.92,2.92,0,0,0-.21.55c0,.06,0,.12,0,.14a5.86,5.86,0,0,1,1.2-1.41l.39-.37a4.76,4.76,0,0,1,1-.84,1.82,1.82,0,0,1,.3-.11c.56-.21.57.56.61,1.21a14.13,14.13,0,0,1-.2,3.35l.31-.53c.38-.68.73-1.4,1.05-2.12.25-1.78,1.92-4.44.57-3.68-.85.48-1.06,2.75-1.06,2.75l-.44.53S270.74,97.34,270.75,96.27Z" fill="#df9876"/><path d="M273.45,93a12.57,12.57,0,0,1-1.75,5.46,4.52,4.52,0,0,1,.35-1.65c.1-.27.21-.54.31-.8a3.62,3.62,0,0,0,.23-.83c0-.29-.06-.48-.26-.4a1.36,1.36,0,0,0-.54.71,11.45,11.45,0,0,0-.5,1.68c0,.12-.05.24-.08.36l-.44.53s0-.67,0-1.74-.86-.2-2.58,1.47A6,6,0,0,0,267,99.27a8.13,8.13,0,0,1,.79-2.65c1.27-2.6,2.43-4.35,4.17-5.53S273.45,93,273.45,93Z" fill="#4f2900"/><polygon points="249.04 102.21 258.17 96.6 258.17 97.67 249.04 103.29 249.04 102.21" fill="#5186bd"/><polygon points="246 104.08 246 105.16 228.33 116.01 228.33 114.94 246 104.08" fill="#5186bd"/><polygon points="265.06 76.07 265.06 77.14 235.21 95.49 235.21 94.41 265.06 76.07" fill="#b1b1b1"/><polygon points="261.9 122.87 268.3 118.94 268.3 113.89 261.9 117.83 261.9 122.87" fill="#95a1a9"/><polygon points="253.51 128.02 259.91 124.08 259.91 119.04 253.51 122.97 253.51 128.02" fill="#95a1a9"/><polygon points="245.11 133.16 251.52 129.23 251.52 124.19 245.11 128.12 245.11 133.16" fill="#95a1a9"/><polygon points="236.72 138.31 243.13 134.38 243.13 129.33 236.72 133.26 236.72 138.31" fill="#95a1a9"/><polygon points="228.33 143.46 234.73 139.52 234.73 134.47 228.33 138.41 228.33 143.46" fill="#95a1a9"/><path d="M82.58,63.91c0,5-3.57,11.22-7.93,13.74L46.27,94c-4.36,2.52-7.93.46-7.93-4.58V56.68c0-5,3.57-11.21,7.93-13.73L74.65,26.56C79,24,82.58,26.1,82.58,31.14Z" fill="url(#k)"/><path d="M38.34,89.45V56.68c0-5,3.57-11.21,7.93-13.73L74.65,26.56a6,6,0,0,1,5.06-.8h0l-4.79-2.93c-1.44-.92-3.48-.83-5.73.46L40.81,39.68c-4.36,2.52-7.93,8.7-7.93,13.74V86.18c0,2.59.94,4.39,2.44,5.19l5.25,3.14h0C39.19,93.65,38.34,91.91,38.34,89.45Z" fill="url(#l)"/><path d="M367.31,46.9a12.29,12.29,0,0,1-5.53,9.59L342,67.92c-3.05,1.76-5.54.32-5.54-3.19V41.86A12.27,12.27,0,0,1,342,32.27l19.8-11.43c3-1.76,5.53-.32,5.53,3.2Z" fill="url(#m)"/><path d="M336.44,64.73V41.86A12.27,12.27,0,0,1,342,32.27l19.8-11.43a4.14,4.14,0,0,1,3.53-.56h0l-3.34-2c-1-.64-2.43-.59-4,.32L338.16,30a12.29,12.29,0,0,0-5.53,9.59V62.44c0,1.81.66,3.06,1.7,3.62L338,68.25h0A3.92,3.92,0,0,1,336.44,64.73Z" fill="url(#n)"/><path d="M224.64,54.6c0,5-3.56,11.22-7.93,13.74L188.33,84.72c-4.36,2.52-7.93.46-7.93-4.58V47.37c0-5,3.57-11.21,7.93-13.73l28.38-16.39c4.37-2.51,7.93-.45,7.93,4.58Z" fill="url(#o)"/><path d="M180.4,80.14V47.37c0-5,3.57-11.21,7.93-13.73l28.38-16.39a6,6,0,0,1,5.06-.8h0L217,13.52c-1.45-.92-3.49-.83-5.74.46L182.87,30.37c-4.36,2.52-7.93,8.7-7.93,13.74V76.88c0,2.58.94,4.38,2.44,5.18l5.25,3.14h0C181.26,84.34,180.4,82.6,180.4,80.14Z" fill="url(#p)"/><path d="M377.68,432.72s-7.85-1.26-10.73-.3-4.07,4.25-2.57,7.73,4.61,5.33,6,5.45,5.81,1.74,6.65,2.94,4.32,5.87,8,6.29,6.71-1.8,6.66-4a19.55,19.55,0,0,0-.67-3.44c-.8-3.1,0-8.09,0-8.09Z" fill="#097abe"/><path d="M377,448.54c.84,1.2,4.32,5.87,8,6.29s6.71-1.8,6.66-4a15.34,15.34,0,0,0-.46-2.57,5,5,0,0,1-3.32,2.21c-3.48.84-3.78,1.61-6.53,0s-4-4.32-6.06-4.92c-1.7-.5-8.82-1.63-11.52-7.74a7.67,7.67,0,0,0,.62,2.35c1.49,3.47,4.61,5.33,6,5.45S376.18,447.34,377,448.54Z" fill="#eee"/><path d="M332.64,438s-4.85.48-6.83.42-8.81.54-10.19,2.88-2,5.81,1.26,8.63a16.89,16.89,0,0,0,10.6,3.77c2.46-.18,6.18,1.08,8.34,1.92s10.19,2.94,12.46,2.52,1.74-6.6,1.47-10S332.64,438,332.64,438Z" fill="#097abe"/><path d="M327.48,453.69c2.46-.18,6.18,1.08,8.34,1.92s10.19,2.94,12.46,2.52c1.14-.21,1.57-1.85,1.69-3.87-1,.11-2.42.28-3.73.45a20.25,20.25,0,0,1-9.34-1.5c-3.06-1.31-5.58-1.31-9.17-1.31-3.24,0-9.61-.44-13.22-7.27a6.1,6.1,0,0,0,2.37,5.29A16.89,16.89,0,0,0,327.48,453.69Z" fill="#eee"/><path d="M323.66,342.73a16.5,16.5,0,0,0-3.55.95c-1.15.57-2.16,3.17-2.16,3.17s-3.56,4.58-3.88,5.66a21.14,21.14,0,0,0,0,4.57l.95,2.23,2.74,2.73a19.25,19.25,0,0,0,2,2,22.55,22.55,0,0,0,3.93.38,13.79,13.79,0,0,1,2.8,0c.32.19,2-.64,1.71-.95a14.36,14.36,0,0,1-1.65-2.8c0-.38,4.26-6,3.18-11.37A8.48,8.48,0,0,0,323.66,342.73Z" fill="#ffcda8"/><path d="M326.52,360.64v0a3.36,3.36,0,0,0-1.41.27,20.76,20.76,0,0,1-3.22-.63s-4.59-2.61-4.59-3.18-1.46-1.65-2.22-2.47c-.39-.42-.46-1.86-.41-3.24a5.75,5.75,0,0,0-.61,1.14,21.14,21.14,0,0,0,0,4.57l.95,2.23,2.74,2.73a19.25,19.25,0,0,0,2,2,22.55,22.55,0,0,0,3.93.38,13.79,13.79,0,0,1,2.8,0c.32.19,2-.64,1.71-.95A14.36,14.36,0,0,1,326.52,360.64Z" fill="#d9a782"/><path d="M363.22,351.37s1.22,15,2.14,21.8,5.82,14.37,7.14,19,2.91,22.92,2.74,29.81a41.85,41.85,0,0,1-2.07,12.12A9.31,9.31,0,0,0,378,444c6.23,3.41,13.09.63,13.09.63s1.12-30.07,1.09-38.91c0-7.66-2.14-11.62-3.63-16.44s-1.25-14.95-1.25-22.5.75-20.43.75-20.43,2.35-11.65,1.59-15-19.94.84-19.94.84Z" fill="#003c5f"/><path d="M340.74,340.49a175.39,175.39,0,0,0-4.51,22.86c-1.23,10.91,1.64,23.86,1.64,30.13s-1.32,30.93-3.15,37-3.49,8.38-3.49,8.38,1.92,11,18.52,10c0,0,2.91-19.18,3.66-23.34s3.82-13.7,3.07-22.33-1.33-16.45-.33-19.77,8.8-26.65,8.8-26.65,10.21-8.24,10.29-16.24Z" fill="#0f5578"/><path d="M340.74,340.49a175.39,175.39,0,0,0-4.51,22.86c-1.23,10.91,1.64,23.86,1.64,30.13s-1.32,30.93-3.15,37-3.49,8.38-3.49,8.38a12,12,0,0,0,5.46,7.35c3.66-12.21,5.45-35.54,5.53-38.26.08-3.2,2.54-8.28,2.54-11.29s-1.32-18.44-1.32-33.12,7.15-20.8,7.15-20.8l.94-2.24Z" fill="#003c5f"/><path d="M384,248.77s2.4,2.11-5.48,4.09a64,64,0,0,1-15.47,1.74s-8.82,7.07-11.69,10.86-4.61,22.65-4.51,27.88-1.53,32.28-1.94,33.2-4.82,16.09-4.82,16.09A36.63,36.63,0,0,0,361,347.76c12.5-.62,30.23-13.22,30.33-14.71s-1.84-11.94-2.46-15.32-1.95-15.37-.82-18.14,12.09-24.39,13.63-31.77S402.94,253.47,396,251A34.92,34.92,0,0,0,384,248.77Z" fill="#b61678"/><path d="M358.06,280.55s-5.21,6.62-11.18,14.25c-.13,7.55-1.56,30.89-1.94,31.74s-4.82,16.09-4.82,16.09a34.6,34.6,0,0,0,13,4.69c.35-4,1.06-10.71,2.09-14.27,1.54-5.32,7-22,7.9-29.84S358.06,280.55,358.06,280.55Z" fill="#900052"/><path d="M363.93,252.86c.36-1.1.86-7.77-.4-8.92s-4.36-1.15-5.51-3.66a39.07,39.07,0,0,1-2.55-8.57c-.05-1.15,1.25-3.2.35-5s-.3-5.76.75-8.42,3.1-7.81,10.77-8.21,14.28,1.9,17.24,7.66,2.75,10.27,1.2,14.68-4,7.77-4.06,10.18a10.42,10.42,0,0,0,3.51,7.41s.3,3.21-6.92,5.91-15.88,0-15.88,0Z" fill="#ffcda8"/><path d="M358.06,240.35a4.07,4.07,0,0,0,3.76-1c.16.5.38.82.69.82.93,0,1.53-2.86,1.43-5.05a15.89,15.89,0,0,1,3.22-3.66l4.38,2.62s-2.62,13.81-.44,23a32.05,32.05,0,0,1-8.67-1.2l1.5-3c.36-1.1.86-7.77-.4-8.92S359.24,242.78,358.06,240.35Z" fill="#d9a782"/><path d="M362.66,208.67c4.68-1.91,14.9-2.61,20.36,3s6.2,14.94,2.33,21.9h0c-1.52,3.82-3.5,6.78-3.61,9a10.17,10.17,0,0,1-3.36,1c-4.31.65-7.37,0-9.33-2s-2.65-7-4.1-8.36-3.91-.75-4.56-.75-1.11-1.16-1.16-1.61.31-4.16-.55-5.31a5.11,5.11,0,0,1-.95-3.56,11,11,0,0,0,.35-3,19.08,19.08,0,0,0-.5-3,2.63,2.63,0,0,1-1-1.95C356.44,212.07,358,210.57,362.66,208.67Z" fill="#563317"/><path d="M385.78,232.41c-1.54,4.39-3.93,7.73-4,10.14a10.17,10.17,0,0,1-3.36,1c-4.31.65-7.37,0-9.33-2s-2.65-7-4.1-8.36-3.91-.75-4.56-.75-1.11-1.16-1.16-1.61a22.92,22.92,0,0,0-.18-4.4c2.34,1.26,9.56,4.85,17,5.56a29.71,29.71,0,0,0,10.07-.56C386,231.78,385.89,232.1,385.78,232.41Z" fill="#634024"/><path d="M322.62,342.91s.29,6.68,9,7.75c0,0,15.78-19.69,19.13-24.38s8.46-20.84,9.74-26.31,1.85-19.62.85-23.46-6-16.23-9.63-12.44c-5.74,6-7.5,11.87-8.29,21.25S342,301.18,341,305.8s-3.27,11.87-3.27,11.87Z" fill="#b61678"/><path d="M380.92,253.37a30.39,30.39,0,0,1-10.47,2.25c-4.33.31-9.54-.78-12.53,4-1.4,2.26,6.73,20.14,27.56,15.44,10.33-2.32,11.15-12.17,9.19-17.47s-9.37-7.58-10.41-6.54C382.2,253.15,381.92,253,380.92,253.37Z" fill="#900052"/><path d="M380.92,250.83a30.62,30.62,0,0,1-10.47,2.25c-4.33.31-9.54-.78-12.53,4-1.4,2.27,6.73,20.15,27.56,15.45,10.33-2.32,11.15-12.17,9.19-17.48s-9.37-7.57-10.41-6.53C382.2,250.61,381.92,250.44,380.92,250.83Z" fill="#b61678"/><path d="M363.22,257.68a19.24,19.24,0,0,0,18.29,6.87c12.16-1.79,7-12.69,7-12.69s3,9.67-7.09,11.5C374,264.72,363.22,257.68,363.22,257.68Z" fill="#900052"/><path d="M348.2,99.41l85.07,49.11c4.8,2.77,8.73,9.58,8.73,15.13v41.53c0,5.55-3.93,7.82-8.73,5L418,201.41v22.51l-19-33.46L348.2,161.11c-4.81-2.77-8.74-9.59-8.74-15.13V104.45C339.46,98.9,343.39,96.63,348.2,99.41Z" fill="url(#q)"/><path d="M442,205.18V163.65c0-5.55-3.93-12.36-8.73-15.13L348.2,99.41c-2.33-1.35-4.45-1.5-6-.68h0L348,95.22c1.58-.93,3.78-.81,6.19.58l85.07,49.12c4.81,2.77,8.74,9.58,8.74,15.13v41.52c0,2.89-1.06,4.89-2.76,5.75l-5.75,3.46h0C441.05,209.84,442,207.91,442,205.18Z" fill="url(#r)"/><polygon points="417.99 201.41 424.01 204.88 424.01 220.32 417.99 223.68 417.99 201.41" fill="url(#s)"/><path d="M37.92,160a13.42,13.42,0,0,1-6.05,10.48L10.22,183c-3.33,1.92-6.05.35-6.05-3.49v-25A13.42,13.42,0,0,1,10.22,144l21.65-12.5c3.33-1.92,6.05-.35,6.05,3.49Z" fill="url(#t)"/><path d="M4.17,179.47v-25A13.42,13.42,0,0,1,10.22,144l21.65-12.5a4.49,4.49,0,0,1,3.86-.61h0l-3.65-2.24c-1.1-.7-2.66-.64-4.37.35L6.05,141.48A13.44,13.44,0,0,0,0,152v25c0,2,.72,3.34,1.86,4l4,2.39h0A4.28,4.28,0,0,1,4.17,179.47Z" fill="url(#u)"/><path d="M393.21,164a9.93,9.93,0,0,0,4.49,7.79c2.49,1.43,4.5.27,4.5-2.6a9.92,9.92,0,0,0-4.5-7.78C395.22,159.94,393.21,161.1,393.21,164Z" fill="#fff"/><path d="M376.36,154.24a9.93,9.93,0,0,0,4.49,7.78c2.49,1.43,4.5.27,4.5-2.59a9.93,9.93,0,0,0-4.5-7.79C378.37,150.21,376.36,151.37,376.36,154.24Z" fill="#fff"/><path d="M359.51,144.51a9.92,9.92,0,0,0,4.5,7.78c2.48,1.44,4.49.27,4.49-2.59a10,10,0,0,0-4.49-7.79C361.52,140.48,359.51,141.64,359.51,144.51Z" fill="#fff"/></g></svg>