<svg xmlns="http://www.w3.org/2000/svg" xmlns:xlink="http://www.w3.org/1999/xlink" viewBox="0 0 71.47 176.25"><defs><linearGradient id="a" x1="-3000.24" y1="157.67" x2="-2941.8" y2="157.67" gradientTransform="matrix(-1, 0, 0, 1, -2936.99, 0)" gradientUnits="userSpaceOnUse"><stop offset="0" stop-color="#009dff"/><stop offset="1" stop-color="#0a20cb"/></linearGradient><linearGradient id="b" x1="-2921.07" y1="141.44" x2="-3238.15" y2="233.64" gradientTransform="matrix(-1, 0, 0, 1, -2936.99, 0)" gradientUnits="userSpaceOnUse"><stop offset="0" stop-color="#2898f4"/><stop offset="0.15" stop-color="#2690f1"/><stop offset="0.37" stop-color="#207aea"/><stop offset="0.66" stop-color="#1755de"/><stop offset="0.98" stop-color="#0b23cd"/><stop offset="1" stop-color="#0a20cc"/></linearGradient><linearGradient id="c" x1="-2974" y1="139.17" x2="-2968.03" y2="139.17" xlink:href="#a"/><linearGradient id="d" x1="-2972.4" y1="73.83" x2="-2991.14" y2="122.85" xlink:href="#a"/><linearGradient id="e" x1="-3006.31" y1="60.87" x2="-3025.05" y2="109.88" xlink:href="#a"/><linearGradient id="f" x1="-3002.2" y1="56.36" x2="-2939.84" y2="56.36" xlink:href="#a"/><linearGradient id="g" x1="-3003.5" y1="74.97" x2="-2938.54" y2="74.97" xlink:href="#a"/><linearGradient id="h" x1="-2943.63" y1="84.83" x2="-2962.37" y2="133.85" xlink:href="#a"/><linearGradient id="i" x1="-2945.6" y1="84.08" x2="-2964.34" y2="133.1" xlink:href="#a"/></defs><title>microphone</title><g style="isolation:isolate"><path d="M13.37,144c11.41-6.59,29.92-6.59,41.33,0,5.71,3.3,8.56,7.62,8.56,11.93v3.42c0,4.31-2.85,8.63-8.56,11.93-11.41,6.58-29.92,6.58-41.33,0-5.7-3.29-8.56-7.61-8.56-11.92V156C4.81,151.65,7.67,147.33,13.37,144Z" fill="url(#a)"/><path d="M13.37,144C2,150.62,2,161.3,13.37,167.89s29.92,6.59,41.33,0,11.41-17.27,0-23.86S24.78,137.44,13.37,144Z" fill="url(#b)"/><path d="M31.92,121.16a4.68,4.68,0,0,1,4.22,0,1.48,1.48,0,0,1,.88,1.22V156a1.46,1.46,0,0,1-.88,1.21,4.62,4.62,0,0,1-4.22,0,1.47,1.47,0,0,1-.87-1.21V122.38A1.49,1.49,0,0,1,31.92,121.16Z" fill="url(#c)"/><path d="M11.36,87.11l.05,18.35c.05,17.54,12.46,24.61,27.72,15.8s27.6-30.17,27.55-47.71L66.62,55.2l1.92-1.11,0,18.35c.06,18.73-13.16,41.62-29.45,51s-29.59,1.82-29.65-16.9L9.44,88.21Z" fill="url(#d)"/><path d="M58.75,40.93l2.52-1.47c1.08-.62,2.57-.52,4.21.43a13.22,13.22,0,0,1,6,10.36c0,1.92-.68,3.27-1.78,3.89L67.18,55.6c-1.08.62-2.57.52-4.21-.43a13.21,13.21,0,0,1-6-10.36C57,42.89,57.66,41.55,58.75,40.93Z" fill="url(#e)"/><path d="M32.42,117.36C47.68,108.55,60,87.19,60,69.65l-.05-17.22A13,13,0,0,1,57,44.81c0-1.92.67-3.26,1.76-3.88s2.58-.52,4.22.43a13.21,13.21,0,0,1,6,10.36c0,1.92-.67,3.26-1.77,3.88a2.7,2.7,0,0,1-.55.24l.05,17.71c0,17.54-12.28,38.9-27.55,47.71-7.68,4.44-14.64,4.85-19.66,1.93l-6.72-3.9C17.78,122.21,24.74,121.79,32.42,117.36Z" fill="#0a22cc"/><polygon points="11.36 79.91 4.64 76 2.73 77.11 9.44 81.01 11.36 79.91" fill="#517e2d"/><path d="M34,0A31.18,31.18,0,0,1,65.21,31.18V81.55a31.18,31.18,0,0,1-62.35,0V31.18A31.18,31.18,0,0,1,34,0Z" fill="url(#f)"/><path d="M60.39,44.23c3-3,4.68-6.2,4.69-9.49,0-1.87,0-3.12,0-3.91a13.61,13.61,0,0,1-5,8.39,4.58,4.58,0,0,0-1.7,3.72C58.5,43.94,59.18,45.43,60.39,44.23Z" fill="#000450"/><path d="M50.33,44.68c1.51-.5,2.3.36,2.3,1.83A3.87,3.87,0,0,1,50.33,50c-11.78,4.17-27.46,3.43-37.9-2.39-6.38-3.56-9.59-8.31-9.57-13L3,29.19c0,4.75,3.2,9.5,9.58,13.06C22.94,48,38.58,48.78,50.33,44.68Z" fill="#000450"/><path d="M60.39,55.17c3-3,4.68-6.19,4.69-9.49,0-1.87,0-3.12,0-3.91a13.65,13.65,0,0,1-5,8.4,4.56,4.56,0,0,0-1.7,3.71C58.5,54.89,59.18,56.37,60.39,55.17Z" fill="#000450"/><path d="M50.33,55.62c1.51-.5,2.3.36,2.3,1.83a3.86,3.86,0,0,1-2.3,3.49c-11.78,4.17-27.46,3.43-37.9-2.39-6.38-3.55-9.59-8.3-9.57-13L3,40.14c0,4.75,3.2,9.49,9.58,13C22.94,59,38.58,59.72,50.33,55.62Z" fill="#000450"/><path d="M60.39,66.11c3-3,4.68-6.19,4.69-9.49,0-1.86,0-3.12,0-3.91a13.63,13.63,0,0,1-5,8.4,4.56,4.56,0,0,0-1.7,3.71C58.5,65.83,59.18,67.31,60.39,66.11Z" fill="#000450"/><path d="M50.33,66.56c1.51-.49,2.3.37,2.3,1.83a3.86,3.86,0,0,1-2.3,3.49c-11.78,4.17-27.46,3.44-37.9-2.38-6.38-3.56-9.59-8.31-9.57-13.06L3,51.08c0,4.75,3.2,9.5,9.58,13C22.94,69.92,38.58,70.66,50.33,66.56Z" fill="#000450"/><path d="M11.06,80C23.75,87.36,44.32,87.36,57,80c4-2.31,6.74-5.07,8.21-8v2.78c-1.48,2.93-4.21,5.69-8.21,8-12.68,7.33-33.25,7.33-45.94,0a20.14,20.14,0,0,1-8.2-8V72.05C4.34,75,7.07,77.73,11.06,80Z" opacity="0.2" style="mix-blend-mode:multiply"/><path d="M1.56,63.14c.07,4.74,3.24,9.47,9.5,13.08,12.69,7.33,33.26,7.33,45.94,0,6.06-3.5,9.22-8,9.49-12.61h0v4.78c-.14,4.69-3.31,9.35-9.51,12.93-12.68,7.32-33.25,7.32-45.94,0-6.34-3.67-9.51-8.47-9.51-13.27V63.14Z" fill="url(#g)"/><path d="M2.86,57.68v6l.26,1.1c.71,4,3.69,7.81,9,10.85,12.16,7,31.88,7,44,0,5.75-3.32,8.78-7.61,9.09-12h0v-.46q0-.3,0-.6v-5c3.22,6.37.49,13.52-8.21,18.54-12.68,7.33-33.25,7.33-45.94,0C2.37,71.2-.36,64.05,2.86,57.68Z" fill="#258cf0"/><path d="M11.41,105.46c0,13.71,7.63,21,18.22,19.36v2.32C18,129.31,9.54,121.48,9.49,106.57L9.44,88.21l1.92-1.1Z" fill="url(#h)"/><path d="M1.77,73.89l2.51-1.47c1.08-.61,2.57-.52,4.21.43a13.22,13.22,0,0,1,6,10.36c0,1.92-.68,3.27-1.77,3.89l-2.52,1.47c-1.08.61-2.57.51-4.21-.43A13.24,13.24,0,0,1,0,77.77C0,75.85.68,74.51,1.77,73.89Z" fill="url(#i)"/><path d="M0,77.77c0-1.92.68-3.26,1.77-3.88s2.57-.52,4.21.43a13.19,13.19,0,0,1,6,10.36c0,1.92-.68,3.27-1.78,3.89a2.7,2.7,0,0,1-.75.28l.05,17.72c0,9.3,3.32,15.85,8.63,18.94l-6.71-3.9c-5.31-3.09-8.6-9.64-8.63-18.94l0-17.53A13,13,0,0,1,0,77.77Z" fill="#083ed7"/><path d="M2.78,79.37A7.08,7.08,0,0,0,6,84.93a2.26,2.26,0,0,0,2.26.23,2.23,2.23,0,0,0,.95-2.08A7.11,7.11,0,0,0,6,77.52a2.26,2.26,0,0,0-2.26-.23A2.27,2.27,0,0,0,2.78,79.37Z" fill="#000450"/></g></svg>